<?xml version="1.0" encoding="UTF-8"?>
<!DOCTYPE svg PUBLIC "-//W3C//DTD SVG 1.1//EN" "http://www.w3.org/Graphics/SVG/1.1/DTD/svg11.dtd">
<svg xmlns="http://www.w3.org/2000/svg" version="1.1" width="1000px" height="306px" style="shape-rendering:geometricPrecision; text-rendering:geometricPrecision; image-rendering:optimizeQuality; fill-rule:evenodd; clip-rule:evenodd" xmlns:xlink="http://www.w3.org/1999/xlink">
<g><path style="opacity:1" fill="#fdfdfd" d="M -0.5,-0.5 C 332.833,-0.5 666.167,-0.5 999.5,-0.5C 999.5,101.5 999.5,203.5 999.5,305.5C 666.167,305.5 332.833,305.5 -0.5,305.5C -0.5,203.5 -0.5,101.5 -0.5,-0.5 Z"/></g>
<g><path style="opacity:1" fill="#39505a" d="M 595.5,25.5 C 610.167,25.5 624.833,25.5 639.5,25.5C 639.5,29.5 639.5,33.5 639.5,37.5C 629.985,37.1731 620.652,37.5064 611.5,38.5C 611.5,44.1667 611.5,49.8333 611.5,55.5C 620.167,55.5 628.833,55.5 637.5,55.5C 637.5,59.8333 637.5,64.1667 637.5,68.5C 628.833,68.5 620.167,68.5 611.5,68.5C 611.5,75.1667 611.5,81.8333 611.5,88.5C 620.652,89.4936 629.985,89.8269 639.5,89.5C 639.5,93.8333 639.5,98.1667 639.5,102.5C 624.833,102.5 610.167,102.5 595.5,102.5C 595.5,76.8333 595.5,51.1667 595.5,25.5 Z"/></g>
<g><path style="opacity:1" fill="#3d545d" d="M 228.5,54.5 C 238.653,55.4942 248.986,55.8276 259.5,55.5C 259.5,45.1667 259.5,34.8333 259.5,24.5C 264.833,24.5 270.167,24.5 275.5,24.5C 275.5,50.5 275.5,76.5 275.5,102.5C 270.167,102.5 264.833,102.5 259.5,102.5C 259.5,91.1667 259.5,79.8333 259.5,68.5C 248.986,68.1724 238.653,68.5058 228.5,69.5C 228.5,80.5 228.5,91.5 228.5,102.5C 222.833,102.5 217.167,102.5 211.5,102.5C 211.5,76.5 211.5,50.5 211.5,24.5C 217.167,24.5 222.833,24.5 228.5,24.5C 228.5,34.5 228.5,44.5 228.5,54.5 Z"/></g>
<g><path style="opacity:1" fill="#7f8d91" d="M 448.5,25.5 C 438.5,25.5 428.5,25.5 418.5,25.5C 418.5,51.1667 418.5,76.8333 418.5,102.5C 417.502,76.672 417.169,50.672 417.5,24.5C 428.014,24.1724 438.347,24.5058 448.5,25.5 Z"/></g>
<g><path style="opacity:1" fill="#5f6f72" d="M 547.5,25.5 C 536.833,25.5 526.167,25.5 515.5,25.5C 515.5,51.1667 515.5,76.8333 515.5,102.5C 514.502,76.672 514.169,50.672 514.5,24.5C 525.679,24.1721 536.679,24.5054 547.5,25.5 Z"/></g>
<g><path style="opacity:1" fill="#717f83" d="M 295.5,25.5 C 310.324,24.5039 325.324,24.1706 340.5,24.5C 340.5,29.1667 340.5,33.8333 340.5,38.5C 331.167,38.5 321.833,38.5 312.5,38.5C 312.167,38.5 311.833,38.5 311.5,38.5C 320.652,37.5064 329.985,37.1731 339.5,37.5C 339.5,33.5 339.5,29.5 339.5,25.5C 324.833,25.5 310.167,25.5 295.5,25.5 Z"/></g>
<g><path style="opacity:1" fill="#727e81" d="M 595.5,25.5 C 610.324,24.5039 625.324,24.1706 640.5,24.5C 640.5,29.1667 640.5,33.8333 640.5,38.5C 631.167,38.5 621.833,38.5 612.5,38.5C 612.167,38.5 611.833,38.5 611.5,38.5C 620.652,37.5064 629.985,37.1731 639.5,37.5C 639.5,33.5 639.5,29.5 639.5,25.5C 624.833,25.5 610.167,25.5 595.5,25.5 Z"/></g>
<g><path style="opacity:1" fill="#3c535d" d="M 670.5,23.5 C 681.246,22.7722 691.58,24.4389 701.5,28.5C 700.259,32.8188 698.592,36.9855 696.5,41C 692.325,39.7728 687.992,38.7728 683.5,38C 680.167,37.3333 676.833,37.3333 673.5,38C 667.271,42.1708 666.938,46.8374 672.5,52C 678.707,55.6031 685.04,58.9364 691.5,62C 702.411,69.4074 705.244,79.2407 700,91.5C 696.713,97.0669 691.879,100.567 685.5,102C 674.195,104.659 663.195,103.826 652.5,99.5C 651.337,94.1977 651.171,88.8643 652,83.5C 661.879,89.4806 672.379,90.9806 683.5,88C 687.646,83.3747 687.313,79.0414 682.5,75C 674.878,71.5226 667.545,67.5226 660.5,63C 652.133,54.828 650.299,45.328 655,34.5C 659.089,29.2149 664.256,25.5482 670.5,23.5 Z"/></g>
<g><path style="opacity:1" fill="#3b525b" d="M 372.5,24.5 C 372.5,46.1667 372.5,67.8333 372.5,89.5C 383.167,89.5 393.833,89.5 404.5,89.5C 404.5,93.8333 404.5,98.1667 404.5,102.5C 388.5,102.5 372.5,102.5 356.5,102.5C 356.5,76.5 356.5,50.5 356.5,24.5C 361.833,24.5 367.167,24.5 372.5,24.5 Z"/></g>
<g><path style="opacity:1" fill="#3b525b" d="M 448.5,25.5 C 466.383,27.5697 473.883,37.5697 471,55.5C 468.486,66.356 461.653,72.5226 450.5,74C 445.177,74.4994 439.844,74.666 434.5,74.5C 434.5,83.8333 434.5,93.1667 434.5,102.5C 429.167,102.5 423.833,102.5 418.5,102.5C 418.5,76.8333 418.5,51.1667 418.5,25.5C 428.5,25.5 438.5,25.5 448.5,25.5 Z"/></g>
<g><path style="opacity:1" fill="#fafcfb" d="M 434.5,38.5 C 439.93,38.161 445.264,38.661 450.5,40C 453.876,42.0652 455.209,45.0652 454.5,49C 454.94,55.5622 451.94,59.5622 445.5,61C 441.848,61.4986 438.182,61.6653 434.5,61.5C 434.5,53.8333 434.5,46.1667 434.5,38.5 Z"/></g>
<g><path style="opacity:1" fill="#c0cacd" d="M 259.5,24.5 C 259.5,34.8333 259.5,45.1667 259.5,55.5C 248.986,55.8276 238.653,55.4942 228.5,54.5C 238.5,54.5 248.5,54.5 258.5,54.5C 258.173,44.3194 258.506,34.3194 259.5,24.5 Z"/></g>
<g><path style="opacity:1" fill="#39505a" d="M 295.5,25.5 C 310.167,25.5 324.833,25.5 339.5,25.5C 339.5,29.5 339.5,33.5 339.5,37.5C 329.985,37.1731 320.652,37.5064 311.5,38.5C 311.5,44.1667 311.5,49.8333 311.5,55.5C 320.167,55.5 328.833,55.5 337.5,55.5C 337.5,59.8333 337.5,64.1667 337.5,68.5C 328.833,68.5 320.167,68.5 311.5,68.5C 311.5,75.1667 311.5,81.8333 311.5,88.5C 320.652,89.4936 329.985,89.8269 339.5,89.5C 339.5,93.8333 339.5,98.1667 339.5,102.5C 324.833,102.5 310.167,102.5 295.5,102.5C 295.5,76.8333 295.5,51.1667 295.5,25.5 Z"/></g>
<g><path style="opacity:1" fill="#3c535d" d="M 547.5,25.5 C 567.888,29.0588 578.554,41.2255 579.5,62C 579.936,82.162 570.602,95.162 551.5,101C 539.539,102.308 527.539,102.808 515.5,102.5C 515.5,76.8333 515.5,51.1667 515.5,25.5C 526.167,25.5 536.833,25.5 547.5,25.5 Z"/></g>
<g><path style="opacity:1" fill="#fcfdfd" d="M 531.5,38.5 C 542.6,36.0682 551.766,39.0682 559,47.5C 561.5,55.9646 562.167,64.6312 561,73.5C 558.723,81.4443 553.556,86.2776 545.5,88C 540.845,88.4992 536.179,88.6658 531.5,88.5C 531.5,71.8333 531.5,55.1667 531.5,38.5 Z"/></g>
<g><path style="opacity:1" fill="#828a89" d="M 87.5,67.5 C 88.6491,67.7911 89.3158,68.6244 89.5,70C 89.1667,70.8333 88.8333,71.6667 88.5,72.5C 87.5481,70.9547 87.2148,69.288 87.5,67.5 Z"/></g>
<g><path style="opacity:1" fill="#b9c4c8" d="M 311.5,38.5 C 311.833,38.5 312.167,38.5 312.5,38.5C 312.5,43.8333 312.5,49.1667 312.5,54.5C 321.167,54.5 329.833,54.5 338.5,54.5C 338.5,59.5 338.5,64.5 338.5,69.5C 329.833,69.5 321.167,69.5 312.5,69.5C 312.5,75.8333 312.5,82.1667 312.5,88.5C 312.167,88.5 311.833,88.5 311.5,88.5C 311.5,81.8333 311.5,75.1667 311.5,68.5C 320.167,68.5 328.833,68.5 337.5,68.5C 337.5,64.1667 337.5,59.8333 337.5,55.5C 328.833,55.5 320.167,55.5 311.5,55.5C 311.5,49.8333 311.5,44.1667 311.5,38.5 Z"/></g>
<g><path style="opacity:1" fill="#b6c1c5" d="M 611.5,38.5 C 611.833,38.5 612.167,38.5 612.5,38.5C 612.5,43.8333 612.5,49.1667 612.5,54.5C 621.167,54.5 629.833,54.5 638.5,54.5C 638.5,59.5 638.5,64.5 638.5,69.5C 629.833,69.5 621.167,69.5 612.5,69.5C 612.5,75.8333 612.5,82.1667 612.5,88.5C 612.167,88.5 611.833,88.5 611.5,88.5C 611.5,81.8333 611.5,75.1667 611.5,68.5C 620.167,68.5 628.833,68.5 637.5,68.5C 637.5,64.1667 637.5,59.8333 637.5,55.5C 628.833,55.5 620.167,55.5 611.5,55.5C 611.5,49.8333 611.5,44.1667 611.5,38.5 Z"/></g>
<g><path style="opacity:1" fill="#3b525b" d="M 732.5,24.5 C 732.168,36.1857 732.501,47.8523 733.5,59.5C 734.107,59.3764 734.44,59.0431 734.5,58.5C 742.569,46.9232 751.236,35.7565 760.5,25C 766.5,24.3333 772.5,24.3333 778.5,25C 769.741,36.5155 760.741,47.8488 751.5,59C 760.375,73.2512 769.375,87.4179 778.5,101.5C 772.167,102.833 765.833,102.833 759.5,101.5C 753.069,90.9601 746.402,80.6268 739.5,70.5C 737.201,71.6351 735.034,72.9684 733,74.5C 732.5,83.8274 732.334,93.1607 732.5,102.5C 727.167,102.5 721.833,102.5 716.5,102.5C 716.5,76.5 716.5,50.5 716.5,24.5C 721.833,24.5 727.167,24.5 732.5,24.5 Z"/></g>
<g><path style="opacity:1" fill="#abbabe" d="M 732.5,24.5 C 733.167,35.8333 733.833,47.1667 734.5,58.5C 734.44,59.0431 734.107,59.3764 733.5,59.5C 732.501,47.8523 732.168,36.1857 732.5,24.5 Z"/></g>
<g><path style="opacity:1" fill="#64696b" d="M 901.5,67.5 C 902.649,67.7911 903.316,68.6244 903.5,70C 903.167,70.8333 902.833,71.6667 902.5,72.5C 901.548,70.9547 901.215,69.288 901.5,67.5 Z"/></g>
<g><path style="opacity:1" fill="#808a8b" d="M 87.5,78.5 C 88.6491,78.7911 89.3158,79.6244 89.5,81C 89.1667,81.8333 88.8333,82.6667 88.5,83.5C 87.5481,81.9547 87.2148,80.288 87.5,78.5 Z"/></g>
<g><path style="opacity:1" fill="#b1bbbf" d="M 228.5,69.5 C 238.653,68.5058 248.986,68.1724 259.5,68.5C 259.5,79.8333 259.5,91.1667 259.5,102.5C 258.505,91.6794 258.172,80.6794 258.5,69.5C 248.5,69.5 238.5,69.5 228.5,69.5 Z"/></g>
<g><path style="opacity:1" fill="#717c7e" d="M 901.5,78.5 C 902.649,78.7911 903.316,79.6244 903.5,81C 903.167,81.8333 902.833,82.6667 902.5,83.5C 901.548,81.9547 901.215,80.288 901.5,78.5 Z"/></g>
<g><path style="opacity:1" fill="#8a989c" d="M 311.5,88.5 C 311.833,88.5 312.167,88.5 312.5,88.5C 321.833,88.5 331.167,88.5 340.5,88.5C 340.819,93.3633 340.486,98.03 339.5,102.5C 339.5,98.1667 339.5,93.8333 339.5,89.5C 329.985,89.8269 320.652,89.4936 311.5,88.5 Z"/></g>
<g><path style="opacity:1" fill="#9eabae" d="M 372.5,24.5 C 373.497,45.6601 373.831,66.9935 373.5,88.5C 384.014,88.1724 394.347,88.5058 404.5,89.5C 393.833,89.5 383.167,89.5 372.5,89.5C 372.5,67.8333 372.5,46.1667 372.5,24.5 Z"/></g>
<g><path style="opacity:1" fill="#8a969a" d="M 611.5,88.5 C 611.833,88.5 612.167,88.5 612.5,88.5C 621.833,88.5 631.167,88.5 640.5,88.5C 640.819,93.3633 640.486,98.03 639.5,102.5C 639.5,98.1667 639.5,93.8333 639.5,89.5C 629.985,89.8269 620.652,89.4936 611.5,88.5 Z"/></g>
<g><path style="opacity:1" fill="#818b8c" d="M 87.5,89.5 C 88.6491,89.7911 89.3158,90.6244 89.5,92C 89.1667,92.8333 88.8333,93.6667 88.5,94.5C 87.5481,92.9547 87.2148,91.288 87.5,89.5 Z"/></g>
<g><path style="opacity:1" fill="#626d6e" d="M 901.5,89.5 C 902.649,89.7911 903.316,90.6244 903.5,92C 903.167,92.8333 902.833,93.6667 902.5,94.5C 901.548,92.9547 901.215,91.288 901.5,89.5 Z"/></g>
<g><path style="opacity:1" fill="#646b6d" d="M 901.5,100.5 C 902.649,100.791 903.316,101.624 903.5,103C 903.167,103.833 902.833,104.667 902.5,105.5C 901.548,103.955 901.215,102.288 901.5,100.5 Z"/></g>
<g><path style="opacity:1" fill="#748181" d="M 87.5,112.5 C 88.5862,112.62 89.2528,113.287 89.5,114.5C 89.1667,115.167 88.8333,115.833 88.5,116.5C 87.5713,115.311 87.238,113.978 87.5,112.5 Z"/></g>
<g><path style="opacity:1" fill="#5a6369" d="M 901.5,112.5 C 902.586,112.62 903.253,113.287 903.5,114.5C 903.167,115.167 902.833,115.833 902.5,116.5C 901.571,115.311 901.238,113.978 901.5,112.5 Z"/></g>
<g><path style="opacity:1" fill="#7e8a8a" d="M 87.5,123.5 C 88.6491,123.791 89.3158,124.624 89.5,126C 89.1667,126.833 88.8333,127.667 88.5,128.5C 87.5481,126.955 87.2148,125.288 87.5,123.5 Z"/></g>
<g><path style="opacity:1" fill="#6f787b" d="M 233.5,122.5 C 234.649,122.791 235.316,123.624 235.5,125C 235.167,125.833 234.833,126.667 234.5,127.5C 233.548,125.955 233.215,124.288 233.5,122.5 Z"/></g>
<g><path style="opacity:1" fill="#62696b" d="M 363.5,122.5 C 364.649,122.791 365.316,123.624 365.5,125C 365.167,125.833 364.833,126.667 364.5,127.5C 363.548,125.955 363.215,124.288 363.5,122.5 Z"/></g>
<g><path style="opacity:1" fill="#64696b" d="M 506.5,122.5 C 507.649,122.791 508.316,123.624 508.5,125C 508.167,125.833 507.833,126.667 507.5,127.5C 506.548,125.955 506.215,124.288 506.5,122.5 Z"/></g>
<g><path style="opacity:1" fill="#616a70" d="M 901.5,123.5 C 902.649,123.791 903.316,124.624 903.5,126C 903.167,126.833 902.833,127.667 902.5,128.5C 901.548,126.955 901.215,125.288 901.5,123.5 Z"/></g>
<g><path style="opacity:1" fill="#5a6767" d="M 768.5,122.5 C 769.788,124.035 769.788,125.701 768.5,127.5C 767.334,125.833 767.334,124.166 768.5,122.5 Z"/></g>
<g><path style="opacity:1" fill="#8a8f8f" d="M 87.5,134.5 C 88.6491,134.791 89.3158,135.624 89.5,137C 89.1667,137.833 88.8333,138.667 88.5,139.5C 87.5481,137.955 87.2148,136.288 87.5,134.5 Z"/></g>
<g><path style="opacity:1" fill="#606467" d="M 233.5,134.5 C 234.586,134.62 235.253,135.287 235.5,136.5C 235.167,137.167 234.833,137.833 234.5,138.5C 233.571,137.311 233.238,135.978 233.5,134.5 Z"/></g>
<g><path style="opacity:1" fill="#576163" d="M 767.5,134.5 C 768.586,134.62 769.253,135.287 769.5,136.5C 769.167,137.167 768.833,137.833 768.5,138.5C 767.571,137.311 767.238,135.978 767.5,134.5 Z"/></g>
<g><path style="opacity:1" fill="#747c7c" d="M 901.5,134.5 C 902.649,134.791 903.316,135.624 903.5,137C 903.167,137.833 902.833,138.667 902.5,139.5C 901.548,137.955 901.215,136.288 901.5,134.5 Z"/></g>
<g><path style="opacity:1" fill="#6a6e70" d="M 363.5,134.5 C 364.586,134.62 365.253,135.287 365.5,136.5C 365.167,137.167 364.833,137.833 364.5,138.5C 363.571,137.311 363.238,135.978 363.5,134.5 Z"/></g>
<g><path style="opacity:1" fill="#6f7374" d="M 506.5,134.5 C 507.586,134.62 508.253,135.287 508.5,136.5C 508.167,137.167 507.833,137.833 507.5,138.5C 506.571,137.311 506.238,135.978 506.5,134.5 Z"/></g>
<g><path style="opacity:1" fill="#5c6566" d="M 233.5,145.5 C 234.586,145.62 235.253,146.287 235.5,147.5C 235.167,148.167 234.833,148.833 234.5,149.5C 233.571,148.311 233.238,146.978 233.5,145.5 Z"/></g>
<g><path style="opacity:1" fill="#677070" d="M 363.5,145.5 C 364.586,145.62 365.253,146.287 365.5,147.5C 365.167,148.167 364.833,148.833 364.5,149.5C 363.571,148.311 363.238,146.978 363.5,145.5 Z"/></g>
<g><path style="opacity:1" fill="#64696c" d="M 506.5,145.5 C 507.649,145.791 508.316,146.624 508.5,148C 508.167,148.833 507.833,149.667 507.5,150.5C 506.548,148.955 506.215,147.288 506.5,145.5 Z"/></g>
<g><path style="opacity:1" fill="#859392" d="M 87.5,145.5 C 88.6491,145.791 89.3158,146.624 89.5,148C 89.1667,148.833 88.8333,149.667 88.5,150.5C 87.5481,148.955 87.2148,147.288 87.5,145.5 Z"/></g>
<g><path style="opacity:1" fill="#656a6d" d="M 901.5,145.5 C 902.649,145.791 903.316,146.624 903.5,148C 903.167,148.833 902.833,149.667 902.5,150.5C 901.548,148.955 901.215,147.288 901.5,145.5 Z"/></g>
<g><path style="opacity:1" fill="#515f61" d="M 363.5,156.5 C 364.803,158.844 366.636,160.844 369,162.5C 370.5,169 368,171.5 361.5,170C 358.546,166.312 359.046,163.145 363,160.5C 363.49,159.207 363.657,157.873 363.5,156.5 Z"/></g>
<g><path style="opacity:1" fill="#515f61" d="M 506.5,156.5 C 507.803,158.844 509.636,160.844 512,162.5C 513.5,169 511,171.5 504.5,170C 501.546,166.312 502.046,163.145 506,160.5C 506.49,159.207 506.657,157.873 506.5,156.5 Z"/></g>
<g><path style="opacity:1" fill="#556468" d="M 901.5,156.5 C 902.926,158.991 904.759,161.325 907,163.5C 907.993,169.502 905.493,171.668 899.5,170C 896.619,166.39 897.119,163.223 901,160.5C 901.49,159.207 901.657,157.873 901.5,156.5 Z"/></g>
<g><path style="opacity:1" fill="#546368" d="M 233.5,156.5 C 234.926,158.991 236.759,161.325 239,163.5C 239.993,169.502 237.493,171.668 231.5,170C 228.546,166.312 229.046,163.145 233,160.5C 233.49,159.207 233.657,157.873 233.5,156.5 Z"/></g>
<g><path style="opacity:1" fill="#445556" d="M 87.5,157.5 C 88.8578,159.801 90.6912,161.801 93,163.5C 93.9443,169.553 91.4443,171.72 85.5,170C 83.5561,167.847 83.0561,165.347 84,162.5C 86.1718,161.491 87.3385,159.824 87.5,157.5 Z"/></g>
<g><path style="opacity:1" fill="#eef3f5" d="M 85.5,162.5 C 91.5548,161.942 92.8881,164.109 89.5,169C 84.7915,169.082 83.4582,166.915 85.5,162.5 Z"/></g>
<g><path style="opacity:1" fill="#f0f4f5" d="M 505.5,162.5 C 511.016,162.473 512.349,164.64 509.5,169C 508.101,169.595 506.768,169.428 505.5,168.5C 504.306,166.484 504.306,164.484 505.5,162.5 Z"/></g>
<g><path style="opacity:1" fill="#566163" d="M 767.5,156.5 C 768.803,158.844 770.636,160.844 773,162.5C 774.5,169 772,171.5 765.5,170C 762.546,166.312 763.046,163.145 767,160.5C 767.49,159.207 767.657,157.873 767.5,156.5 Z"/></g>
<g><path style="opacity:1" fill="#f1f5f7" d="M 766.5,162.5 C 772.016,162.473 773.349,164.64 770.5,169C 765.791,169.082 764.458,166.915 766.5,162.5 Z"/></g>
<g><path style="opacity:1" fill="#f0f4f6" d="M 900.5,162.5 C 906.016,162.473 907.349,164.64 904.5,169C 899.791,169.082 898.458,166.915 900.5,162.5 Z"/></g>
<g><path style="opacity:1" fill="#e7edef" d="M 232.5,162.5 C 237.328,162.385 238.661,164.552 236.5,169C 231.57,169.427 230.237,167.26 232.5,162.5 Z"/></g>
<g><path style="opacity:1" fill="#e3eced" d="M 362.5,162.5 C 368.016,162.473 369.349,164.64 366.5,169C 361.57,169.427 360.237,167.26 362.5,162.5 Z"/></g>
<g><path style="opacity:1" fill="#4c595c" d="M 644.5,156.5 C 646.361,159.482 648.361,162.482 650.5,165.5C 648.624,170.706 645.457,171.706 641,168.5C 640.833,167.5 640.667,166.5 640.5,165.5C 641.927,162.488 643.261,159.488 644.5,156.5 Z"/></g>
<g><path style="opacity:1" fill="#ebf2f3" d="M 642.5,162.5 C 648.555,161.942 649.888,164.109 646.5,169C 641.791,169.082 640.458,166.915 642.5,162.5 Z"/></g>
<g><path style="opacity:1" fill="#49585d" d="M 915.5,178.5 C 925.889,179.496 928.222,184.329 922.5,193C 914.381,194.875 910.548,191.708 911,183.5C 912.366,181.638 913.866,179.972 915.5,178.5 Z"/></g>
<g><path style="opacity:1" fill="#b6775f" d="M 506.5,178.5 C 507.765,179.514 508.431,181.014 508.5,183C 508.167,184.5 507.833,186 507.5,187.5C 506.516,184.572 506.183,181.572 506.5,178.5 Z"/></g>
<g><path style="opacity:1" fill="#f5f8f8" d="M 916.5,180.5 C 923.57,181.407 925.237,184.907 921.5,191C 914.562,193.06 911.729,190.56 913,183.5C 914.145,182.364 915.312,181.364 916.5,180.5 Z"/></g>
<g><path style="opacity:1" fill="#c36846" d="M 494.5,186.5 C 495.686,187.961 495.686,189.295 494.5,190.5C 493.19,188.565 491.857,186.565 490.5,184.5C 490.833,184.167 491.167,183.833 491.5,183.5C 492.735,184.34 493.735,185.34 494.5,186.5 Z"/></g>
<g><path style="opacity:1" fill="#505e66" d="M 654.5,184.5 C 654.228,189.28 652.895,193.614 650.5,197.5C 646.833,196.167 643.167,196.167 639.5,197.5C 637.163,193.485 635.829,189.151 635.5,184.5C 641.809,181.95 648.142,181.95 654.5,184.5 Z"/></g>
<g><path style="opacity:1" fill="#c56645" d="M 522.5,183.5 C 523.376,183.369 524.043,183.702 524.5,184.5C 519.407,192.406 518.74,192.072 522.5,183.5 Z"/></g>
<g><path style="opacity:1" fill="#4e5d62" d="M 211.5,178.5 C 221.896,179.411 224.229,184.244 218.5,193C 210.381,194.875 206.548,191.708 207,183.5C 208.366,181.638 209.866,179.972 211.5,178.5 Z"/></g>
<g><path style="opacity:1" fill="#f0f4f4" d="M 211.5,180.5 C 219.302,180.787 221.302,184.287 217.5,191C 208.446,191.734 206.446,188.234 211.5,180.5 Z"/></g>
<g><path style="opacity:1" fill="#c86746" d="M 657.5,185.5 C 666.054,188.722 672.387,194.389 676.5,202.5C 676.483,204.028 675.816,204.528 674.5,204C 671.167,196.667 665.833,191.333 658.5,188C 657.748,187.329 657.414,186.496 657.5,185.5 Z"/></g>
<g><path style="opacity:1" fill="#cf6540" d="M 107.5,198.5 C 107.672,199.492 107.338,200.158 106.5,200.5C 104.619,197.548 101.952,195.548 98.5,194.5C 94.5548,195.268 90.5548,195.768 86.5,196C 82.0928,198.532 80.4262,202.365 81.5,207.5C 89.8333,207.5 98.1667,207.5 106.5,207.5C 107.302,206.048 107.802,204.382 108,202.5C 108.495,204.473 108.662,206.473 108.5,208.5C 99.0144,209.494 89.3478,209.827 79.5,209.5C 77.6231,201.591 80.2897,195.924 87.5,192.5C 84.1619,187.027 85.1619,182.527 90.5,179C 97.3578,177.68 101.358,180.514 102.5,187.5C 101.979,189.524 101.812,191.524 102,193.5C 104.328,194.664 106.162,196.33 107.5,198.5 Z"/></g>
<g><path style="opacity:1" fill="#faf8f3" d="M 90.5,181.5 C 100.267,181.073 102.6,184.906 97.5,193C 87.4151,193.76 85.0818,189.927 90.5,181.5 Z"/></g>
<g><path style="opacity:1" fill="#c6653f" d="M 615.5,204.5 C 614.624,204.631 613.957,204.298 613.5,203.5C 616.798,195.87 622.132,190.203 629.5,186.5C 630.575,185.438 631.575,185.438 632.5,186.5C 624.733,190.598 619.067,196.598 615.5,204.5 Z"/></g>
<g><path style="opacity:1" fill="#fcf8f4" d="M 106.5,200.5 C 106.5,202.833 106.5,205.167 106.5,207.5C 98.1667,207.5 89.8333,207.5 81.5,207.5C 80.4262,202.365 82.0928,198.532 86.5,196C 90.5548,195.768 94.5548,195.268 98.5,194.5C 101.952,195.548 104.619,197.548 106.5,200.5 Z"/></g>
<g><path style="opacity:1" fill="#c06440" d="M 479.5,195.5 C 482.14,195.954 484.473,197.121 486.5,199C 483.318,199.409 480.985,198.243 479.5,195.5 Z"/></g>
<g><path style="opacity:1" fill="#bd674d" d="M 375.5,196.5 C 377.465,196.948 377.798,197.948 376.5,199.5C 375.614,198.675 375.281,197.675 375.5,196.5 Z"/></g>
<g><path style="opacity:1" fill="#c06541" d="M 532.5,195.5 C 533.873,195.343 535.207,195.51 536.5,196C 534.465,198.315 532.132,199.148 529.5,198.5C 530.77,197.712 531.77,196.712 532.5,195.5 Z"/></g>
<g><path style="opacity:1" fill="#faf9f6" d="M 635.5,184.5 C 635.829,189.151 637.163,193.485 639.5,197.5C 643.167,196.167 646.833,196.167 650.5,197.5C 652.895,193.614 654.228,189.28 654.5,184.5C 655.391,185.11 656.391,185.443 657.5,185.5C 657.414,186.496 657.748,187.329 658.5,188C 665.833,191.333 671.167,196.667 674.5,204C 675.816,204.528 676.483,204.028 676.5,202.5C 679.915,202.761 679.915,203.928 676.5,206C 677.056,206.383 677.389,206.883 677.5,207.5C 673.087,207.687 668.754,208.354 664.5,209.5C 664.173,214.214 664.507,218.88 665.5,223.5C 669.351,225.129 673.351,226.129 677.5,226.5C 678.722,227.937 678.722,229.437 677.5,231C 677.905,231.945 678.572,232.612 679.5,233C 677.846,233.608 676.179,234.108 674.5,234.5C 675.218,232.863 675.384,231.197 675,229.5C 670.642,236.691 664.809,242.358 657.5,246.5C 658,246.833 658.5,247.167 659,247.5C 660.138,247.011 661.305,246.678 662.5,246.5C 660.86,247.932 659.026,249.265 657,250.5C 656.098,250.257 655.265,249.923 654.5,249.5C 654.441,245.264 653.441,241.264 651.5,237.5C 647.167,236.167 642.833,236.167 638.5,237.5C 636.559,241.264 635.559,245.264 635.5,249.5C 634.778,249.082 634.278,248.416 634,247.5C 631.661,249.078 629.828,248.745 628.5,246.5C 629.858,247.626 631.192,247.626 632.5,246.5C 624.479,242.479 618.479,236.479 614.5,228.5C 613.614,229.325 613.281,230.325 613.5,231.5C 612.5,231.5 611.5,231.5 610.5,231.5C 610.387,224.81 610.721,218.144 611.5,211.5C 611.197,216.43 611.531,221.263 612.5,226C 616.876,225.659 621.209,224.826 625.5,223.5C 625.666,219.154 625.499,214.821 625,210.5C 623.378,209.901 621.878,209.234 620.5,208.5C 621.833,208.5 623.167,208.5 624.5,208.5C 624.587,205.402 624.087,205.068 623,207.5C 622.772,204.676 621.605,202.343 619.5,200.5C 618.676,202.421 617.343,203.754 615.5,204.5C 619.067,196.598 624.733,190.598 632.5,186.5C 631.575,185.438 630.575,185.438 629.5,186.5C 629.62,185.414 630.287,184.747 631.5,184.5C 632.98,185.432 634.313,185.432 635.5,184.5 Z"/></g>
<g><path style="opacity:1" fill="#f6f9f9" d="M 640.5,184.5 C 644.534,184.505 648.534,184.838 652.5,185.5C 651.833,188.5 651.167,191.5 650.5,194.5C 646.833,194.5 643.167,194.5 639.5,194.5C 638.833,191.5 638.167,188.5 637.5,185.5C 638.791,185.737 639.791,185.404 640.5,184.5 Z"/></g>
<g><path style="opacity:1" fill="#c96442" d="M 767.5,208.5 C 765.901,206.396 764.068,204.396 762,202.5C 763.097,194.95 760.097,189.95 753,187.5C 752.167,187.667 751.333,187.833 750.5,188C 752.798,190.301 754.798,192.801 756.5,195.5C 755.99,198.407 755.323,201.241 754.5,204C 747.531,207.019 742.198,205.185 738.5,198.5C 738.03,202.74 739.697,206.24 743.5,209C 747.241,209.919 750.908,210.919 754.5,212C 751.518,212.498 748.518,212.665 745.5,212.5C 738.324,209.156 734.991,203.489 735.5,195.5C 739.472,196.949 742.806,199.449 745.5,203C 750.924,204.077 753.924,201.91 754.5,196.5C 752.244,192.903 749.577,189.569 746.5,186.5C 758.391,184.882 764.225,190.216 764,202.5C 765.074,203.618 766.24,204.618 767.5,205.5C 768.653,206.687 768.653,207.687 767.5,208.5 Z"/></g>
<g><path style="opacity:1" fill="#f3f6f6" d="M 224.5,197.5 C 225.458,197.953 226.292,198.619 227,199.5C 227.5,207.159 227.666,214.826 227.5,222.5C 226.167,222.5 224.833,222.5 223.5,222.5C 223.829,216.463 223.496,210.463 222.5,204.5C 221.501,219.152 221.167,233.818 221.5,248.5C 219.5,248.5 217.5,248.5 215.5,248.5C 214.833,223.167 214.167,223.167 213.5,248.5C 211.5,248.5 209.5,248.5 207.5,248.5C 207.833,233.818 207.499,219.152 206.5,204.5C 205.504,210.463 205.171,216.463 205.5,222.5C 204.167,222.5 202.833,222.5 201.5,222.5C 201.334,214.826 201.5,207.159 202,199.5C 202.5,199 203,198.5 203.5,198C 210.492,197.5 217.492,197.334 224.5,197.5 Z"/></g>
<g><path style="opacity:1" fill="#c86744" d="M 342.5,178.5 C 351.839,178.334 361.173,178.5 370.5,179C 371,179.5 371.5,180 372,180.5C 372.667,186.833 372.667,193.167 372,199.5C 371.5,200 371,200.5 370.5,201C 364.5,201.333 358.5,201.667 352.5,202C 348.822,209.092 346.822,208.925 346.5,201.5C 344.61,201.703 343.11,201.037 342,199.5C 341.205,192.42 341.372,185.42 342.5,178.5 Z"/></g>
<g><path style="opacity:1" fill="#fcf4ef" d="M 369.5,181.5 C 370.825,187.234 370.825,193.068 369.5,199C 363.472,199.17 357.472,199.67 351.5,200.5C 349.352,204.387 348.019,204.054 347.5,199.5C 346.791,198.596 345.791,198.263 344.5,198.5C 344.5,192.833 344.5,187.167 344.5,181.5C 352.833,181.5 361.167,181.5 369.5,181.5 Z"/></g>
<g><path style="opacity:1" fill="#c88b75" d="M 347.5,188.5 C 348.5,188.5 349.5,188.5 350.5,188.5C 350.5,189.5 350.5,190.5 350.5,191.5C 349.5,191.5 348.5,191.5 347.5,191.5C 347.5,190.5 347.5,189.5 347.5,188.5 Z"/></g>
<g><path style="opacity:1" fill="#c36b53" d="M 363.5,188.5 C 365.465,188.948 365.798,189.948 364.5,191.5C 363.614,190.675 363.281,189.675 363.5,188.5 Z"/></g>
<g><path style="opacity:1" fill="#ba684f" d="M 355.5,188.5 C 357.465,188.948 357.798,189.948 356.5,191.5C 355.614,190.675 355.281,189.675 355.5,188.5 Z"/></g>
<g><path style="opacity:1" fill="#ffd9c0" d="M 369.5,181.5 C 361.167,181.5 352.833,181.5 344.5,181.5C 344.5,187.167 344.5,192.833 344.5,198.5C 345.791,198.263 346.791,198.596 347.5,199.5C 346.167,199.5 344.833,199.5 343.5,199.5C 343.5,193.167 343.5,186.833 343.5,180.5C 352.349,180.174 361.016,180.507 369.5,181.5 Z"/></g>
<g><path style="opacity:1" fill="#c96544" d="M 653.5,198.5 C 658.583,198.501 662.25,201.168 664.5,206.5C 663.998,207.521 663.332,207.688 662.5,207C 660.287,203.286 657.287,200.452 653.5,198.5 Z"/></g>
<g><path style="opacity:1" fill="#ce704e" d="M 526.5,222.5 C 525.18,223.942 523.514,224.608 521.5,224.5C 520.736,230.392 517.402,232.559 511.5,231C 510.299,230.097 509.465,228.931 509,227.5C 508.333,217.167 508.333,206.833 509,196.5C 509.513,195.473 510.013,194.473 510.5,193.5C 512.601,191.891 514.935,191.391 517.5,192C 527.212,199.986 530.212,210.153 526.5,222.5 Z"/></g>
<g><path style="opacity:1" fill="#fcf3e9" d="M 767.5,208.5 C 765.04,207.063 762.374,206.063 759.5,205.5C 759.629,207.216 759.962,208.883 760.5,210.5C 758.629,210.859 757.129,211.859 756,213.5C 756.096,215.381 755.929,217.047 755.5,218.5C 753.242,218.225 752.908,217.225 754.5,215.5C 751.061,215.094 748.061,214.094 745.5,212.5C 748.518,212.665 751.518,212.498 754.5,212C 750.908,210.919 747.241,209.919 743.5,209C 739.697,206.24 738.03,202.74 738.5,198.5C 742.198,205.185 747.531,207.019 754.5,204C 755.323,201.241 755.99,198.407 756.5,195.5C 754.798,192.801 752.798,190.301 750.5,188C 751.333,187.833 752.167,187.667 753,187.5C 760.097,189.95 763.097,194.95 762,202.5C 764.068,204.396 765.901,206.396 767.5,208.5 Z"/></g>
<g><path style="opacity:1" fill="#ce633f" d="M 505.5,195.5 C 505.672,196.492 505.338,197.158 504.5,197.5C 502.124,192.758 499.291,192.424 496,196.5C 495.186,200.207 496.686,202.54 500.5,203.5C 500,203.833 499.5,204.167 499,204.5C 496.379,203.713 494.546,202.046 493.5,199.5C 490.346,203.672 491.346,206.672 496.5,208.5C 494.276,209.78 492.276,209.447 490.5,207.5C 489.167,209.167 489.167,210.833 490.5,212.5C 491.609,211.41 492.609,211.41 493.5,212.5C 487.954,216.759 488.288,220.425 494.5,223.5C 497.477,222.523 499.477,220.523 500.5,217.5C 501.582,221.645 499.915,223.978 495.5,224.5C 495.822,228.976 498.156,230.476 502.5,229C 503.381,228.292 504.047,227.458 504.5,226.5C 505.167,226.5 505.5,226.833 505.5,227.5C 503.598,231.36 500.598,232.36 496.5,230.5C 494.576,226.74 491.743,223.74 488,221.5C 487.833,220.5 487.667,219.5 487.5,218.5C 487.773,214.248 487.939,209.914 488,205.5C 489.147,203.269 490.147,200.935 491,198.5C 493.391,197.61 494.891,195.943 495.5,193.5C 499.454,190.652 502.788,191.319 505.5,195.5 Z"/></g>
<g><path style="opacity:1" fill="#c56644" d="M 633.5,197.5 C 634.552,197.351 635.552,197.517 636.5,198C 632.66,200.674 629.327,203.841 626.5,207.5C 626.167,207.167 625.833,206.833 625.5,206.5C 627.504,202.834 630.171,199.834 633.5,197.5 Z"/></g>
<g><path style="opacity:1" fill="#44555b" d="M 928.5,211.5 C 928.44,210.957 928.107,210.624 927.5,210.5C 926.501,223.817 926.167,237.15 926.5,250.5C 920.833,250.5 915.167,250.5 909.5,250.5C 909.833,236.151 909.499,221.818 908.5,207.5C 903.341,209.912 898.341,212.579 893.5,215.5C 891.127,213.665 889.961,211.332 890,208.5C 895.921,204.456 901.755,200.289 907.5,196C 914.833,195.333 922.167,195.333 929.5,196C 931.049,197.214 932.215,198.714 933,200.5C 935.07,206.876 937.236,213.209 939.5,219.5C 939.392,220.442 939.059,221.275 938.5,222C 937.128,222.402 935.795,222.902 934.5,223.5C 931.962,219.757 929.962,215.757 928.5,211.5 Z"/></g>
<g><path style="opacity:1" fill="#f5f7f7" d="M 908.5,197.5 C 915.508,197.334 922.508,197.5 929.5,198C 932.46,205.045 935.127,212.212 937.5,219.5C 936.349,220.731 935.183,220.731 934,219.5C 931.781,214.333 929.281,209.333 926.5,204.5C 925.501,219.152 925.167,233.818 925.5,248.5C 923.5,248.5 921.5,248.5 919.5,248.5C 918.833,223.167 918.167,223.167 917.5,248.5C 915.5,248.5 913.5,248.5 911.5,248.5C 911.5,233.833 911.5,219.167 911.5,204.5C 905.37,206.481 899.537,209.148 894,212.5C 892.831,211.991 891.998,211.158 891.5,210C 897.234,205.812 902.901,201.646 908.5,197.5 Z"/></g>
<g><path style="opacity:1" fill="#d59375" d="M 107.5,198.5 C 109.531,201.708 109.865,205.041 108.5,208.5C 108.662,206.473 108.495,204.473 108,202.5C 107.802,204.382 107.302,206.048 106.5,207.5C 106.5,205.167 106.5,202.833 106.5,200.5C 107.338,200.158 107.672,199.492 107.5,198.5 Z"/></g>
<g><path style="opacity:1" fill="#fbefe5" d="M 513.5,193.5 C 517.803,193.963 519.636,196.296 519,200.5C 517.693,201.772 516.193,202.772 514.5,203.5C 515,203.833 515.5,204.167 516,204.5C 518.684,203.269 521.184,201.936 523.5,200.5C 524.288,204.71 522.621,207.377 518.5,208.5C 519.167,208.833 519.833,209.167 520.5,209.5C 522.325,208.349 524.325,207.682 526.5,207.5C 526.657,208.873 526.49,210.207 526,211.5C 524.865,211.727 523.698,212.06 522.5,212.5C 525.979,215.552 526.313,218.886 523.5,222.5C 518.944,223.989 515.944,222.322 514.5,217.5C 513.418,221.645 515.085,223.978 519.5,224.5C 518.908,229.262 516.408,230.596 512,228.5C 511.333,217.5 511.333,206.5 512,195.5C 512.717,194.956 513.217,194.289 513.5,193.5 Z"/></g>
<g><path style="opacity:1" fill="#4b5c62" d="M 374.5,186.5 C 379.844,186.334 385.177,186.501 390.5,187C 391,187.5 391.5,188 392,188.5C 392.667,194.833 392.667,201.167 392,207.5C 391.5,208 391,208.5 390.5,209C 386.179,209.499 381.846,209.666 377.5,209.5C 377.799,211.604 377.466,213.604 376.5,215.5C 374.35,213.851 372.35,212.018 370.5,210C 367.833,209.667 365.167,209.333 362.5,209C 361.424,207.274 361.257,205.441 362,203.5C 362.49,204.793 362.657,206.127 362.5,207.5C 365.518,207.335 368.518,207.502 371.5,208C 372.618,209.074 373.618,210.24 374.5,211.5C 375.429,210.311 375.762,208.978 375.5,207.5C 380.5,207.5 385.5,207.5 390.5,207.5C 390.666,201.491 390.499,195.491 390,189.5C 384.483,189.177 379.316,188.177 374.5,186.5 Z"/></g>
<g><path style="opacity:1" fill="#4a5b61" d="M 620.5,208.5 C 621.878,209.234 623.378,209.901 625,210.5C 625.499,214.821 625.666,219.154 625.5,223.5C 621.209,224.826 616.876,225.659 612.5,226C 611.531,221.263 611.197,216.43 611.5,211.5C 611.116,209.335 611.783,207.668 613.5,206.5C 615.729,207.577 618.063,208.244 620.5,208.5 Z"/></g>
<g><path style="opacity:1" fill="#495961" d="M 204.5,195.5 C 211.508,195.334 218.508,195.5 225.5,196C 226.416,196.374 227.25,196.874 228,197.5C 229.443,206.392 229.943,215.392 229.5,224.5C 227.5,224.5 225.5,224.5 223.5,224.5C 223.5,233.167 223.5,241.833 223.5,250.5C 220.833,250.5 218.167,250.5 215.5,250.5C 217.5,249.833 219.5,249.167 221.5,248.5C 221.167,233.818 221.501,219.152 222.5,204.5C 223.496,210.463 223.829,216.463 223.5,222.5C 224.833,222.5 226.167,222.5 227.5,222.5C 227.666,214.826 227.5,207.159 227,199.5C 226.292,198.619 225.458,197.953 224.5,197.5C 217.833,196.833 211.167,196.167 204.5,195.5 Z"/></g>
<g><path style="opacity:1" fill="#da7855" d="M 236.5,181.5 C 246.839,181.334 257.172,181.5 267.5,182C 268,182.5 268.5,183 269,183.5C 269.814,191.413 269.647,199.246 268.5,207C 261.5,207.333 254.5,207.667 247.5,208C 245.689,210.978 243.356,213.478 240.5,215.5C 239.52,212.914 239.187,210.247 239.5,207.5C 237.278,207.822 235.444,207.155 234,205.5C 233.333,198.5 233.333,191.5 234,184.5C 235.045,183.627 235.878,182.627 236.5,181.5 Z"/></g>
<g><path style="opacity:1" fill="#fee8d7" d="M 249.5,184.5 C 255.5,184.5 261.5,184.5 267.5,184.5C 267.5,191.5 267.5,198.5 267.5,205.5C 260.5,205.5 253.5,205.5 246.5,205.5C 247.25,202.621 248.25,199.788 249.5,197C 248.946,195.449 248.28,193.949 247.5,192.5C 247.543,191.584 247.876,190.917 248.5,190.5C 249.341,188.621 249.675,186.621 249.5,184.5 Z"/></g>
<g><path style="opacity:1" fill="#cf7352" d="M 248.5,190.5 C 249.833,190.5 251.167,190.5 252.5,190.5C 252.335,193.85 252.502,197.183 253,200.5C 253.671,201.252 254.504,201.586 255.5,201.5C 255.5,202.167 255.5,202.833 255.5,203.5C 253.167,203.5 250.833,203.5 248.5,203.5C 249.312,201.257 249.979,198.924 250.5,196.5C 250.13,194.333 249.463,192.333 248.5,190.5 Z"/></g>
<g><path style="opacity:1" fill="#fbfdfb" d="M 255.5,203.5 C 255.5,202.833 255.5,202.167 255.5,201.5C 254.835,197.863 254.168,194.197 253.5,190.5C 254.098,189.205 254.598,187.872 255,186.5C 258.73,185.54 262.563,185.207 266.5,185.5C 266.5,191.833 266.5,198.167 266.5,204.5C 262.629,204.815 258.962,204.482 255.5,203.5 Z"/></g>
<g><path style="opacity:1" fill="#c5775c" d="M 250.5,186.5 C 253.957,186.667 254.29,187.667 251.5,189.5C 250.614,188.675 250.281,187.675 250.5,186.5 Z"/></g>
<g><path style="opacity:1" fill="#fcfaf7" d="M 249.5,184.5 C 249.675,186.621 249.341,188.621 248.5,190.5C 247.876,190.917 247.543,191.584 247.5,192.5C 248.28,193.949 248.946,195.449 249.5,197C 248.25,199.788 247.25,202.621 246.5,205.5C 245.405,207.358 244.071,209.025 242.5,210.5C 241.548,208.955 241.215,207.288 241.5,205.5C 239.833,205.5 238.167,205.5 236.5,205.5C 236.5,198.5 236.5,191.5 236.5,184.5C 240.833,184.5 245.167,184.5 249.5,184.5 Z"/></g>
<g><path style="opacity:1" fill="#f4f6f6" d="M 613.5,209.5 C 616.973,209.576 620.306,210.242 623.5,211.5C 623.5,215.167 623.5,218.833 623.5,222.5C 620.333,222.4 617.333,223.067 614.5,224.5C 613.506,219.544 613.173,214.544 613.5,209.5 Z"/></g>
<g><path style="opacity:1" fill="#48575c" d="M 755.5,218.5 C 755.929,217.047 756.096,215.381 756,213.5C 757.129,211.859 758.629,210.859 760.5,210.5C 762.129,211.625 763.629,212.959 765,214.5C 774.583,204.581 784.416,195.081 794.5,186C 797.28,185.731 799.446,186.898 801,189.5C 801.667,190.167 801.667,190.833 801,191.5C 792.085,201.417 782.752,211.084 773,220.5C 774.582,222.824 775.248,225.49 775,228.5C 772.834,230.121 770.334,230.955 767.5,231C 761.167,237.333 754.833,243.667 748.5,250C 746.5,250.667 744.5,250.667 742.5,250C 740.333,247.833 738.167,245.667 736,243.5C 735.333,241.833 735.333,240.167 736,238.5C 742.703,231.965 749.203,225.298 755.5,218.5 Z"/></g>
<g><path style="opacity:1" fill="#f2f6f6" d="M 795.5,187.5 C 797.384,187.712 798.717,188.712 799.5,190.5C 790.402,200.099 781.069,209.599 771.5,219C 769.432,218.983 767.766,217.983 766.5,216C 776.115,206.216 785.782,196.716 795.5,187.5 Z"/></g>
<g><path style="opacity:1" fill="#fceadc" d="M 504.5,197.5 C 504.5,207.167 504.5,216.833 504.5,226.5C 504.047,227.458 503.381,228.292 502.5,229C 498.156,230.476 495.822,228.976 495.5,224.5C 499.915,223.978 501.582,221.645 500.5,217.5C 499.477,220.523 497.477,222.523 494.5,223.5C 488.288,220.425 487.954,216.759 493.5,212.5C 492.609,211.41 491.609,211.41 490.5,212.5C 489.167,210.833 489.167,209.167 490.5,207.5C 492.276,209.447 494.276,209.78 496.5,208.5C 491.346,206.672 490.346,203.672 493.5,199.5C 494.546,202.046 496.379,203.713 499,204.5C 499.5,204.167 500,203.833 500.5,203.5C 496.686,202.54 495.186,200.207 496,196.5C 499.291,192.424 502.124,192.758 504.5,197.5 Z"/></g>
<g><path style="opacity:1" fill="#47575b" d="M 383.5,213.5 C 395.491,213.338 399.491,218.838 395.5,230C 398.978,232.145 401.811,234.978 404,238.5C 404.793,242.423 404.626,246.256 403.5,250C 392.257,250.82 381.09,250.653 370,249.5C 367.872,240.423 371.038,234.09 379.5,230.5C 375.902,223.525 377.235,217.859 383.5,213.5 Z"/></g>
<g><path style="opacity:1" fill="#c9714d" d="M 498.5,211.5 C 499.497,211.47 500.164,211.97 500.5,213C 499.425,217.626 496.758,219.459 492.5,218.5C 495.953,217.383 497.953,215.049 498.5,211.5 Z"/></g>
<g><path style="opacity:1" fill="#f3f7f7" d="M 759.5,212.5 C 764.131,216.63 768.631,220.963 773,225.5C 773.5,227.667 772.667,228.5 770.5,228C 766.633,223.798 762.467,219.965 758,216.5C 757.7,214.934 758.2,213.601 759.5,212.5 Z"/></g>
<g><path style="opacity:1" fill="#48585c" d="M 74.5,215.5 C 84.3712,216.343 93.8712,218.676 103,222.5C 103.862,224.087 104.529,225.754 105,227.5C 109.629,224.436 114.463,221.769 119.5,219.5C 126.041,221.829 127.041,225.662 122.5,231C 114.671,235.08 107.004,239.413 99.5,244C 92.0001,244.128 84.6667,242.962 77.5,240.5C 76.5581,240.608 75.7247,240.941 75,241.5C 74.4941,246.538 71.6608,249.538 66.5,250.5C 65.5581,250.392 64.7247,250.059 64,249.5C 59.6779,241.686 55.5112,233.853 51.5,226C 54.2608,220.483 58.2608,219.316 63.5,222.5C 67.4005,220.392 71.0672,218.059 74.5,215.5 Z"/></g>
<g><path style="opacity:1" fill="#f7f9f9" d="M 383.5,215.5 C 390.304,214.221 394.304,216.888 395.5,223.5C 394.303,230.273 390.303,232.773 383.5,231C 378.208,225.835 378.208,220.668 383.5,215.5 Z"/></g>
<g><path style="opacity:1" fill="#f6f8f8" d="M 74.5,217.5 C 83.3302,218.373 91.9968,220.206 100.5,223C 103.265,225.966 102.932,228.633 99.5,231C 95.2696,230.821 91.1029,229.987 87,228.5C 86.5,228.833 86,229.167 85.5,229.5C 89.5943,231.02 93.761,232.354 98,233.5C 104.462,229.728 110.962,225.894 117.5,222C 120.857,220.859 122.857,222.025 123.5,225.5C 122.731,228.104 121.064,229.938 118.5,231C 111.833,234.667 105.167,238.333 98.5,242C 91.3544,242.015 84.3544,240.849 77.5,238.5C 74.9885,240.158 72.8219,239.825 71,237.5C 68.6258,233.25 66.1258,229.084 63.5,225C 67.3447,222.637 71.0113,220.137 74.5,217.5 Z"/></g>
<g><path style="opacity:1" fill="#49585c" d="M 338.5,213.5 C 346.025,212.534 350.692,215.701 352.5,223C 352.18,225.799 351.18,228.299 349.5,230.5C 358.554,234.15 361.554,240.65 358.5,250C 347.257,250.82 336.09,250.653 325,249.5C 322.573,240.244 325.74,233.91 334.5,230.5C 330.819,223.511 332.152,217.844 338.5,213.5 Z"/></g>
<g><path style="opacity:1" fill="#f4f7f7" d="M 338.5,215.5 C 346.828,214.663 350.661,218.33 350,226.5C 347.413,231.068 343.579,232.568 338.5,231C 331.89,225.802 331.89,220.636 338.5,215.5 Z"/></g>
<g><path style="opacity:1" fill="#c66c4d" d="M 515.5,211.5 C 516.79,214.791 519.124,217.124 522.5,218.5C 522,218.833 521.5,219.167 521,219.5C 516.59,218.592 514.757,215.925 515.5,211.5 Z"/></g>
<g><path style="opacity:1" fill="#b3704f" d="M 505.5,195.5 C 506.833,206.167 506.833,216.833 505.5,227.5C 505.5,226.833 505.167,226.5 504.5,226.5C 504.5,216.833 504.5,207.167 504.5,197.5C 505.338,197.158 505.672,196.492 505.5,195.5 Z"/></g>
<g><path style="opacity:1" fill="#f7f9f9" d="M 757.5,219.5 C 761.235,221.725 764.568,224.558 767.5,228C 760.887,234.613 754.221,241.279 747.5,248C 746.167,248.667 744.833,248.667 743.5,248C 741.667,246.167 739.833,244.333 738,242.5C 737.333,241.5 737.333,240.5 738,239.5C 744.004,232.329 750.504,225.662 757.5,219.5 Z"/></g>
<g><path style="opacity:1" fill="#8296a3" d="M 928.5,211.5 C 927.833,224.5 927.167,237.5 926.5,250.5C 926.167,237.15 926.501,223.817 927.5,210.5C 928.107,210.624 928.44,210.957 928.5,211.5 Z"/></g>
<g><path style="opacity:1" fill="#e7e7e7" d="M 13.5,297.5 C 14.0431,297.44 14.3764,297.107 14.5,296.5C 11.8333,295.167 11.8333,293.833 14.5,292.5C 14.3358,289.172 14.1692,285.839 14,282.5C 10.1667,281 9,282.167 10.5,286C 9.20677,286.49 7.87344,286.657 6.5,286.5C 6.38929,285.883 6.05596,285.383 5.5,285C 8.8418,283.876 9.17513,282.376 6.5,280.5C 9.16667,280.5 11.8333,280.5 14.5,280.5C 13.6138,278.278 13.6138,276.112 14.5,274C 14.0556,272.238 13.5556,272.405 13,274.5C 12.1824,270.677 11.0157,270.51 9.5,274C 10.9872,277.192 9.98722,279.026 6.5,279.5C 7.129,277.535 7.79566,275.535 8.5,273.5C 8.27164,271.793 7.9383,270.126 7.5,268.5C 9.80154,269.86 11.4682,269.193 12.5,266.5C 14.0046,269.131 14.6713,268.797 14.5,265.5C 12.5082,265.328 10.8415,265.995 9.5,267.5C 8.81815,266.757 8.15149,266.091 7.5,265.5C 7.26269,264.209 7.59603,263.209 8.5,262.5C 8.96431,258.498 8.29764,254.831 6.5,251.5C 9.1873,251.664 11.854,251.497 14.5,251C 14.0183,249.992 13.8516,248.825 14,247.5C 12.6507,250.07 11.484,250.07 10.5,247.5C 11.5,247.167 12.1667,246.5 12.5,245.5C 13.9778,245.762 15.3112,245.429 16.5,244.5C 13.0202,243.194 9.68684,243.194 6.5,244.5C 6.61795,227.213 6.61795,209.546 6.5,191.5C 10.1667,191.5 13.8333,191.5 17.5,191.5C 17.8108,207.369 17.4775,223.202 16.5,239C 19.5187,240.701 20.0187,242.867 18,245.5C 17.6667,262.833 17.3333,280.167 17,297.5C 15.7083,298.791 14.5417,298.791 13.5,297.5 Z"/></g>
<g><path style="opacity:1" fill="#6c6c6c" d="M 11.5,216.5 C 14.0764,216.722 14.9098,218.055 14,220.5C 13,217.833 12,217.833 11,220.5C 10,217.833 9,217.833 8,220.5C 7.51722,219.552 7.35055,218.552 7.5,217.5C 9.09903,217.768 10.4324,217.434 11.5,216.5 Z"/></g>
<g><path style="opacity:1" fill="#7a7a7a" d="M 10.5,210.5 C 8.95186,210.821 8.28519,211.821 8.5,213.5C 16.3782,213.901 16.3782,214.901 8.5,216.5C 7.52577,214.257 7.19244,211.924 7.5,209.5C 8.79105,209.263 9.79105,209.596 10.5,210.5 Z"/></g>
<g><path style="opacity:1" fill="#696969" d="M 10.5,210.5 C 12.1033,210.312 13.4366,210.812 14.5,212C 12.8602,212.348 11.5268,211.848 10.5,210.5 Z"/></g>
<g><path style="opacity:1" fill="#848484" d="M 8.5,198.5 C 10.4672,198.261 12.3005,198.594 14,199.5C 14.658,201.108 14.158,202.275 12.5,203C 15.1047,204.931 15.1047,206.764 12.5,208.5C 10.9291,207.691 9.26241,207.357 7.5,207.5C 7.2965,205.61 7.96317,204.11 9.5,203C 7.21766,201.916 6.88433,200.416 8.5,198.5 Z"/></g>
<g><path style="opacity:1" fill="#e0e0e0" d="M 9.5,199.5 C 11.1033,199.312 12.4366,199.812 13.5,201C 11.8333,201.667 10.1667,201.667 8.5,201C 9.05596,200.617 9.38929,200.117 9.5,199.5 Z"/></g>
<g><path style="opacity:1" fill="#656565" d="M 7.5,194.5 C 8.22158,194.918 8.72158,195.584 9,196.5C 10.4443,194.845 12.2776,194.178 14.5,194.5C 14.6713,197.797 14.0046,198.131 12.5,195.5C 11.1585,197.005 9.49181,197.672 7.5,197.5C 7.5,196.5 7.5,195.5 7.5,194.5 Z"/></g>
<g><path style="opacity:1" fill="#4a585f" d="M 677.5,207.5 C 678.807,213.734 678.807,220.068 677.5,226.5C 673.351,226.129 669.351,225.129 665.5,223.5C 664.507,218.88 664.173,214.214 664.5,209.5C 668.754,208.354 673.087,207.687 677.5,207.5 Z"/></g>
<g><path style="opacity:1" fill="#f2f6f6" d="M 671.5,209.5 C 673.167,209.5 674.833,209.5 676.5,209.5C 676.5,214.5 676.5,219.5 676.5,224.5C 673.123,224.041 669.789,223.374 666.5,222.5C 666.177,218.774 666.511,215.107 667.5,211.5C 669.026,211.006 670.359,210.339 671.5,209.5 Z"/></g>
<g><path style="opacity:1" fill="#f3f7f7" d="M 57.5,222.5 C 58.8221,222.33 59.9887,222.663 61,223.5C 64.4141,229.997 68.0808,236.33 72,242.5C 72.6667,243.5 72.6667,244.5 72,245.5C 70.2467,246.627 68.4134,247.627 66.5,248.5C 61.8298,241.831 57.6631,234.831 54,227.5C 53.2506,226.365 53.4173,225.365 54.5,224.5C 55.7387,224.058 56.7387,223.391 57.5,222.5 Z"/></g>
<g><path style="opacity:1" fill="#757575" d="M 8.5,221.5 C 11.0606,221.447 13.0606,222.447 14.5,224.5C 13.3687,225.604 12.5354,225.271 12,223.5C 11.6258,224.416 11.1258,225.25 10.5,226C 14.5971,226.634 15.2637,228.301 12.5,231C 14.2112,232.133 14.7112,233.633 14,235.5C 13.6924,234.692 13.1924,234.025 12.5,233.5C 11.1585,235.005 9.49181,235.672 7.5,235.5C 7.41253,232.402 7.91253,232.068 9,234.5C 9.83333,233.667 10.6667,232.833 11.5,232C 9.77735,231.477 8.44402,230.477 7.5,229C 7.7169,226.484 8.05023,223.984 8.5,221.5 Z"/></g>
<g><path style="opacity:1" fill="#49595a" d="M 57.5,225.5 C 60.8606,226.203 61.1939,227.537 58.5,229.5C 56.3576,228.563 56.0243,227.23 57.5,225.5 Z"/></g>
<g><path style="opacity:1" fill="#dddddd" d="M 9.5,227.5 C 11.1033,227.312 12.4366,227.812 13.5,229C 11.8333,229.667 10.1667,229.667 8.5,229C 9.05596,228.617 9.38929,228.117 9.5,227.5 Z"/></g>
<g><path style="opacity:1" fill="#c76c49" d="M 625.5,225.5 C 629.075,228.732 632.742,232.066 636.5,235.5C 635.635,236.583 634.635,236.749 633.5,236C 629.825,233.172 627.158,229.672 625.5,225.5 Z"/></g>
<g><path style="opacity:1" fill="#c86b4c" d="M 662.5,225.5 C 664.225,225.843 664.725,226.843 664,228.5C 661.273,231.731 658.106,234.397 654.5,236.5C 654.167,236.167 653.833,235.833 653.5,235.5C 657.234,232.769 660.234,229.436 662.5,225.5 Z"/></g>
<g><path style="opacity:1" fill="#fdeee0" d="M 494.5,186.5 C 496.564,186.762 497.897,187.929 498.5,190C 501.625,190.544 504.625,191.377 507.5,192.5C 507.351,193.552 507.517,194.552 508,195.5C 508.417,194.244 509.25,193.577 510.5,193.5C 510.013,194.473 509.513,195.473 509,196.5C 508.333,206.833 508.333,217.167 509,227.5C 509.465,228.931 510.299,230.097 511.5,231C 517.402,232.559 520.736,230.392 521.5,224.5C 523.514,224.608 525.18,223.942 526.5,222.5C 526.306,224.912 524.973,225.912 522.5,225.5C 522.5,227.5 522.5,229.5 522.5,231.5C 520.435,231.517 518.435,231.85 516.5,232.5C 510.5,232.5 504.5,232.5 498.5,232.5C 497.167,232.5 496.5,231.833 496.5,230.5C 500.598,232.36 503.598,231.36 505.5,227.5C 506.833,216.833 506.833,206.167 505.5,195.5C 502.788,191.319 499.454,190.652 495.5,193.5C 495.443,192.391 495.11,191.391 494.5,190.5C 495.686,189.295 495.686,187.961 494.5,186.5 Z"/></g>
<g><path style="opacity:1" fill="#f9fbfb" d="M 334.5,232.5 C 338.84,233.645 343.173,233.645 347.5,232.5C 355.883,234.589 359.217,239.922 357.5,248.5C 347.167,248.5 336.833,248.5 326.5,248.5C 324.963,240.906 327.63,235.573 334.5,232.5 Z"/></g>
<g><path style="opacity:1" fill="#fafcfb" d="M 379.5,232.5 C 383.84,233.645 388.173,233.645 392.5,232.5C 401.152,234.489 404.485,239.822 402.5,248.5C 392.167,248.5 381.833,248.5 371.5,248.5C 370.333,241.023 372.999,235.69 379.5,232.5 Z"/></g>
<g><path style="opacity:1" fill="#c86a47" d="M 674.5,234.5 C 670.86,238.806 666.86,242.806 662.5,246.5C 661.305,246.678 660.138,247.011 659,247.5C 658.5,247.167 658,246.833 657.5,246.5C 664.809,242.358 670.642,236.691 675,229.5C 675.384,231.197 675.218,232.863 674.5,234.5 Z"/></g>
<g><path style="opacity:1" fill="#c9d2d8" d="M 499.5,234.5 C 505.206,234.171 510.872,234.505 516.5,235.5C 516.376,236.107 516.043,236.44 515.5,236.5C 509.729,237.113 504.396,236.446 499.5,234.5 Z"/></g>
<g><path style="opacity:1" fill="#6d6d6d" d="M 9.5,236.5 C 12.6429,237.436 13.4762,239.103 12,241.5C 8.97961,240.7 8.14628,239.033 9.5,236.5 Z"/></g>
<g><path style="opacity:1" fill="#4a5a62" d="M 204.5,195.5 C 211.167,196.167 217.833,196.833 224.5,197.5C 217.492,197.334 210.492,197.5 203.5,198C 203,198.5 202.5,199 202,199.5C 201.5,207.159 201.334,214.826 201.5,222.5C 202.833,222.5 204.167,222.5 205.5,222.5C 205.171,216.463 205.504,210.463 206.5,204.5C 207.499,219.152 207.833,233.818 207.5,248.5C 209.5,248.5 211.5,248.5 213.5,248.5C 214.167,223.167 214.833,223.167 215.5,248.5C 217.5,248.5 219.5,248.5 221.5,248.5C 219.5,249.167 217.5,249.833 215.5,250.5C 212.167,250.5 208.833,250.5 205.5,250.5C 205.5,241.833 205.5,233.167 205.5,224.5C 203.5,224.5 201.5,224.5 199.5,224.5C 199.334,215.827 199.5,207.16 200,198.5C 201.129,196.859 202.629,195.859 204.5,195.5 Z"/></g>
<g><path style="opacity:1" fill="#2f3f44" d="M 499.5,234.5 C 504.975,233.511 510.642,233.178 516.5,233.5C 518.007,237.283 517.673,240.95 515.5,244.5C 514.833,243.833 514.167,243.167 513.5,242.5C 509.5,242.5 505.5,242.5 501.5,242.5C 505.589,241.784 510.255,241.118 515.5,240.5C 516.043,240.44 516.376,240.107 516.5,239.5C 510.872,238.505 505.206,238.171 499.5,238.5C 504.833,237.833 510.167,237.167 515.5,236.5C 516.043,236.44 516.376,236.107 516.5,235.5C 510.872,234.505 505.206,234.171 499.5,234.5 Z"/></g>
<g><path style="opacity:1" fill="#c6d6da" d="M 499.5,238.5 C 505.206,238.171 510.872,238.505 516.5,239.5C 516.376,240.107 516.043,240.44 515.5,240.5C 509.729,241.113 504.396,240.446 499.5,238.5 Z"/></g>
<g><path style="opacity:1" fill="#ca6a45" d="M 628.5,246.5 C 622.473,242.473 617.473,237.473 613.5,231.5C 613.281,230.325 613.614,229.325 614.5,228.5C 618.479,236.479 624.479,242.479 632.5,246.5C 631.192,247.626 629.858,247.626 628.5,246.5 Z"/></g>
<g><path style="opacity:1" fill="#c55c36" d="M 778.5,217.5 C 786.132,224.631 793.632,231.964 801,239.5C 801.667,240.833 801.667,242.167 801,243.5C 798.833,245.667 796.667,247.833 794.5,250C 792.765,250.651 791.098,250.485 789.5,249.5C 784.376,243.875 779.042,238.375 773.5,233C 775.976,233.747 778.309,235.081 780.5,237C 783.679,241.512 787.512,245.346 792,248.5C 794.992,246.674 797.492,244.34 799.5,241.5C 792.486,233.488 785.486,225.488 778.5,217.5 Z"/></g>
<g><path style="opacity:1" fill="#5c6c71" d="M 498.5,232.5 C 504.5,232.5 510.5,232.5 516.5,232.5C 516.5,232.833 516.5,233.167 516.5,233.5C 510.642,233.178 504.975,233.511 499.5,234.5C 504.396,236.446 509.729,237.113 515.5,236.5C 510.167,237.167 504.833,237.833 499.5,238.5C 504.396,240.446 509.729,241.113 515.5,240.5C 510.255,241.118 505.589,241.784 501.5,242.5C 505.5,250.5 509.5,250.5 513.5,242.5C 514.167,243.167 514.833,243.833 515.5,244.5C 513.429,245.891 511.762,247.724 510.5,250C 508.5,250.667 506.5,250.667 504.5,250C 502.239,247.704 500.239,245.204 498.5,242.5C 497.249,239.126 497.249,235.793 498.5,232.5 Z"/></g>
<g><path style="opacity:1" fill="#e1eaea" d="M 501.5,242.5 C 505.5,242.5 509.5,242.5 513.5,242.5C 509.5,250.5 505.5,250.5 501.5,242.5 Z"/></g>
<g><path style="opacity:1" fill="#ca6946" d="M 877.5,215.5 C 886.536,215.272 893.036,219.272 897,227.5C 897.468,242.364 890.301,248.864 875.5,247C 866.38,241.92 863.547,234.42 867,224.5C 868.046,222.91 869.213,221.41 870.5,220C 872.993,218.581 875.326,217.081 877.5,215.5 Z"/></g>
<g><path style="opacity:1" fill="#fbf6f0" d="M 876.5,218.5 C 888.974,217.478 895.141,223.145 895,235.5C 891.127,243.853 884.627,247.019 875.5,245C 867.185,239.553 865.352,232.387 870,223.5C 871.965,221.45 874.132,219.783 876.5,218.5 Z"/></g>
<g><path style="opacity:1" fill="#c7643f" d="M 887.5,225.5 C 888.552,225.351 889.552,225.517 890.5,226C 887.167,230 883.833,234 880.5,238C 879.5,238.667 878.5,238.667 877.5,238C 876.025,235.691 874.358,233.524 872.5,231.5C 873.002,230.479 873.668,230.312 874.5,231C 875.346,233.18 876.846,234.68 879,235.5C 882.395,232.608 885.229,229.275 887.5,225.5 Z"/></g>
<g><path style="opacity:1" fill="#a3a3a3" d="M 12.5,245.5 C 10.2646,245.795 8.26465,245.461 6.5,244.5C 9.68684,243.194 13.0202,243.194 16.5,244.5C 15.3112,245.429 13.9778,245.762 12.5,245.5 Z"/></g>
<g><path style="opacity:1" fill="#49575c" d="M 654.5,249.5 C 648.115,250.698 641.782,250.698 635.5,249.5C 635.559,245.264 636.559,241.264 638.5,237.5C 642.833,236.167 647.167,236.167 651.5,237.5C 653.441,241.264 654.441,245.264 654.5,249.5 Z"/></g>
<g><path style="opacity:1" fill="#f1f5f6" d="M 639.5,238.5 C 643.226,238.177 646.893,238.511 650.5,239.5C 651.642,242.399 652.308,245.399 652.5,248.5C 647.5,248.5 642.5,248.5 637.5,248.5C 637.851,245.097 638.518,241.763 639.5,238.5 Z"/></g>
<g><path style="opacity:1" fill="#6a6a6a" d="M 10.5,247.5 C 11.484,250.07 12.6507,250.07 14,247.5C 13.8516,248.825 14.0183,249.992 14.5,251C 11.854,251.497 9.1873,251.664 6.5,251.5C 7.60853,250.71 8.94186,250.21 10.5,250C 9.22641,249.023 9.22641,248.189 10.5,247.5 Z"/></g>
<g><path style="opacity:1" fill="#696969" d="M 9.5,252.5 C 11.0394,254.982 12.5394,254.982 14,252.5C 13.6094,254.891 13.6094,257.224 14,259.5C 11.9251,256.972 11.0918,257.139 11.5,260C 10.5165,260.591 9.84987,260.257 9.5,259C 10.3862,256.888 10.3862,254.722 9.5,252.5 Z"/></g>
<g><path style="opacity:1" fill="#505050" d="M 8.5,262.5 C 10.5817,262.332 12.5817,262.332 14.5,262.5C 13.0095,263.244 11.5095,263.91 10,264.5C 9.28281,263.956 8.78281,263.289 8.5,262.5 Z"/></g>
<g><path style="opacity:1" fill="#45565c" d="M 271.5,265.5 C 280.024,265.345 282.358,269.011 278.5,276.5C 270.527,278.692 267.694,275.692 270,267.5C 270.717,266.956 271.217,266.289 271.5,265.5 Z"/></g>
<g><path style="opacity:1" fill="#829394" d="M 572.5,277.5 C 572.665,273.818 572.499,270.152 572,266.5C 571.667,269.167 571.333,271.833 571,274.5C 570.283,273.956 569.783,273.289 569.5,272.5C 570.468,270.393 570.802,268.059 570.5,265.5C 571.5,265.5 572.5,265.5 573.5,265.5C 573.817,269.702 573.483,273.702 572.5,277.5 Z"/></g>
<g><path style="opacity:1" fill="#4e5c60" d="M 578.5,265.5 C 580.604,265.201 582.604,265.534 584.5,266.5C 579.647,267.175 577.813,269.842 579,274.5C 580.183,275.731 581.349,275.731 582.5,274.5C 581.147,273.476 580.48,272.143 580.5,270.5C 582.167,270.5 583.833,270.5 585.5,270.5C 585.5,272.833 585.5,275.167 585.5,277.5C 582.552,277.777 579.719,277.444 577,276.5C 574.689,272.374 575.189,268.707 578.5,265.5 Z"/></g>
<g><path style="opacity:1" fill="#4a595f" d="M 862.5,265.5 C 864.167,265.5 865.833,265.5 867.5,265.5C 867.649,266.552 867.483,267.552 867,268.5C 865.989,267.663 864.822,267.33 863.5,267.5C 863.83,270.109 865.33,271.776 868,272.5C 868.667,273.833 868.667,275.167 868,276.5C 865.534,277.777 863.034,277.777 860.5,276.5C 862.167,275.833 863.833,275.167 865.5,274.5C 863.374,273.099 861.707,271.266 860.5,269C 860.978,267.697 861.645,266.531 862.5,265.5 Z"/></g>
<g><path style="opacity:1" fill="#44555a" d="M 872.5,265.5 C 881.244,265.413 883.577,269.246 879.5,277C 871.492,278.655 868.659,275.488 871,267.5C 871.717,266.956 872.217,266.289 872.5,265.5 Z"/></g>
<g><path style="opacity:1" fill="#506067" d="M 904.5,265.5 C 907.5,265.5 910.5,265.5 913.5,265.5C 913.5,266.5 913.5,267.5 913.5,268.5C 912.5,268.5 911.5,268.5 910.5,268.5C 910.5,271.5 910.5,274.5 910.5,277.5C 909.5,277.5 908.5,277.5 907.5,277.5C 907.5,274.167 907.5,270.833 907.5,267.5C 905.821,267.715 904.821,267.048 904.5,265.5 Z"/></g>
<g><path style="opacity:1" fill="#6a6a6a" d="M 7.5,265.5 C 8.15149,266.091 8.81815,266.757 9.5,267.5C 10.8415,265.995 12.5082,265.328 14.5,265.5C 14.6713,268.797 14.0046,269.131 12.5,266.5C 11.4682,269.193 9.80154,269.86 7.5,268.5C 7.5,267.5 7.5,266.5 7.5,265.5 Z"/></g>
<g><path style="opacity:1" fill="#a2b0b6" d="M 113.5,266.5 C 111.5,266.5 109.5,266.5 107.5,266.5C 107.5,270.167 107.5,273.833 107.5,277.5C 106.517,273.702 106.183,269.702 106.5,265.5C 109.059,265.198 111.393,265.532 113.5,266.5 Z"/></g>
<g><path style="opacity:1" fill="#2c3f42" d="M 201.5,266.5 C 200.432,267.434 199.099,267.768 197.5,267.5C 196.521,270.625 196.187,273.958 196.5,277.5C 196.167,277.5 195.833,277.5 195.5,277.5C 195.5,273.833 195.5,270.167 195.5,266.5C 197.5,266.5 199.5,266.5 201.5,266.5 Z"/></g>
<g><path style="opacity:1" fill="#9fafb1" d="M 937.5,266.5 C 936.5,266.5 935.5,266.5 934.5,266.5C 934.5,270.167 934.5,273.833 934.5,277.5C 933.517,273.702 933.183,269.702 933.5,265.5C 935.099,265.232 936.432,265.566 937.5,266.5 Z"/></g>
<g><path style="opacity:1" fill="#8f999e" d="M 79.5,266.5 C 77.5,266.5 75.5,266.5 73.5,266.5C 73.5,270.167 73.5,273.833 73.5,277.5C 72.5166,273.702 72.1832,269.702 72.5,265.5C 75.0593,265.198 77.3926,265.532 79.5,266.5 Z"/></g>
<g><path style="opacity:1" fill="#b2bfc5" d="M 223.5,266.5 C 221.5,266.5 219.5,266.5 217.5,266.5C 217.5,270.167 217.5,273.833 217.5,277.5C 216.517,273.702 216.183,269.702 216.5,265.5C 219.059,265.198 221.393,265.532 223.5,266.5 Z"/></g>
<g><path style="opacity:1" fill="#44545a" d="M 246.5,265.5 C 247.822,265.33 248.989,265.663 250,266.5C 252.04,270.067 252.873,273.734 252.5,277.5C 250.742,275.262 248.408,274.262 245.5,274.5C 245.5,275.5 245.5,276.5 245.5,277.5C 244.325,277.719 243.325,277.386 242.5,276.5C 244.234,272.963 245.568,269.296 246.5,265.5 Z"/></g>
<g><path style="opacity:1" fill="#b1bec3" d="M 390.5,270.5 C 389.596,269.791 389.263,268.791 389.5,267.5C 390.873,267.657 392.207,267.49 393.5,267C 391.527,266.505 389.527,266.338 387.5,266.5C 387.5,270.167 387.5,273.833 387.5,277.5C 386.517,273.702 386.183,269.702 386.5,265.5C 389.167,265.5 391.833,265.5 394.5,265.5C 394.5,266.5 394.5,267.5 394.5,268.5C 392.517,268.157 391.183,268.824 390.5,270.5 Z"/></g>
<g><path style="opacity:1" fill="#435659" d="M 453.5,265.5 C 462.818,265.655 464.818,269.488 459.5,277C 451.992,278.141 449.492,274.974 452,267.5C 452.717,266.956 453.217,266.289 453.5,265.5 Z"/></g>
<g><path style="opacity:1" fill="#374c56" d="M 537.5,266.5 C 539.388,268.988 540.055,271.988 539.5,275.5C 541.288,275.215 542.955,275.548 544.5,276.5C 542.257,277.474 539.924,277.808 537.5,277.5C 537.5,273.833 537.5,270.167 537.5,266.5 Z"/></g>
<g><path style="opacity:1" fill="#3c505a" d="M 557.5,266.5 C 558.787,267.871 559.453,269.705 559.5,272C 559.167,273.833 558.833,275.667 558.5,277.5C 557.511,273.893 557.177,270.226 557.5,266.5 Z"/></g>
<g><path style="opacity:1" fill="#4e5c61" d="M 656.5,265.5 C 662.496,264.333 664.996,266.666 664,272.5C 662.644,273.38 661.144,273.714 659.5,273.5C 659.5,274.833 659.5,276.167 659.5,277.5C 658.5,277.5 657.5,277.5 656.5,277.5C 656.5,273.5 656.5,269.5 656.5,265.5 Z"/></g>
<g><path style="opacity:1" fill="#8d9da3" d="M 762.5,266.5 C 760.5,266.5 758.5,266.5 756.5,266.5C 756.5,270.167 756.5,273.833 756.5,277.5C 755.517,273.702 755.183,269.702 755.5,265.5C 758.059,265.198 760.393,265.532 762.5,266.5 Z"/></g>
<g><path style="opacity:1" fill="#88959b" d="M 800.5,266.5 C 798.5,266.5 796.5,266.5 794.5,266.5C 794.5,270.167 794.5,273.833 794.5,277.5C 793.517,273.702 793.183,269.702 793.5,265.5C 796.059,265.198 798.393,265.532 800.5,266.5 Z"/></g>
<g><path style="opacity:1" fill="#435659" d="M 934.5,277.5 C 934.5,273.833 934.5,270.167 934.5,266.5C 935.5,266.5 936.5,266.5 937.5,266.5C 938.989,268.805 940.489,271.138 942,273.5C 942.182,270.774 942.682,268.107 943.5,265.5C 944.491,269.445 944.824,273.445 944.5,277.5C 943.448,277.649 942.448,277.483 941.5,277C 939.877,274.92 938.377,272.754 937,270.5C 937.03,273.361 936.197,275.695 934.5,277.5 Z"/></g>
<g><path style="opacity:1" fill="#45555d" d="M 181.5,265.5 C 182.822,265.33 183.989,265.663 185,266.5C 186.08,268.996 187.414,271.33 189,273.5C 189.182,270.774 189.682,268.107 190.5,265.5C 191.491,269.445 191.824,273.445 191.5,277.5C 190.178,277.67 189.011,277.337 188,276.5C 186.414,274.33 185.08,271.996 184,269.5C 183.818,272.226 183.318,274.893 182.5,277.5C 181.509,273.555 181.176,269.555 181.5,265.5 Z"/></g>
<g><path style="opacity:1" fill="#818d90" d="M 201.5,266.5 C 199.5,266.5 197.5,266.5 195.5,266.5C 195.5,270.167 195.5,273.833 195.5,277.5C 194.517,273.702 194.183,269.702 194.5,265.5C 197.059,265.198 199.393,265.532 201.5,266.5 Z"/></g>
<g><path style="opacity:1" fill="#3d5156" d="M 223.5,266.5 C 226.134,268.54 226.134,270.707 223.5,273C 224.257,274.512 225.257,275.846 226.5,277C 225.5,277.667 224.5,277.667 223.5,277C 222.845,275.513 221.845,274.347 220.5,273.5C 219.943,275.332 218.943,276.665 217.5,277.5C 217.5,273.833 217.5,270.167 217.5,266.5C 219.5,266.5 221.5,266.5 223.5,266.5 Z"/></g>
<g><path style="opacity:1" fill="#becbcf" d="M 219.5,267.5 C 220.5,267.5 221.5,267.5 222.5,267.5C 222.5,268.833 222.5,270.167 222.5,271.5C 221.5,271.5 220.5,271.5 219.5,271.5C 219.5,270.167 219.5,268.833 219.5,267.5 Z"/></g>
<g><path style="opacity:1" fill="#a3b2b4" d="M 354.5,266.5 C 352.5,266.5 350.5,266.5 348.5,266.5C 348.5,270.167 348.5,273.833 348.5,277.5C 347.517,273.702 347.183,269.702 347.5,265.5C 350.059,265.198 352.393,265.532 354.5,266.5 Z"/></g>
<g><path style="opacity:1" fill="#3e4e51" d="M 354.5,266.5 C 355.458,266.953 356.292,267.619 357,268.5C 358.833,275.834 356,278.834 348.5,277.5C 348.5,273.833 348.5,270.167 348.5,266.5C 350.5,266.5 352.5,266.5 354.5,266.5 Z"/></g>
<g><path style="opacity:1" fill="#8f9ba0" d="M 436.5,266.5 C 434.5,266.5 432.5,266.5 430.5,266.5C 430.5,270.167 430.5,273.833 430.5,277.5C 429.517,273.702 429.183,269.702 429.5,265.5C 432.059,265.198 434.393,265.532 436.5,266.5 Z"/></g>
<g><path style="opacity:1" fill="#6d7b7f" d="M 471.5,266.5 C 469.5,266.5 467.5,266.5 465.5,266.5C 465.5,270.167 465.5,273.833 465.5,277.5C 464.517,273.702 464.183,269.702 464.5,265.5C 467.059,265.198 469.393,265.532 471.5,266.5 Z"/></g>
<g><path style="opacity:1" fill="#47575a" d="M 515.5,265.5 C 522.576,265.857 522.909,266.857 516.5,268.5C 517.865,269.941 519.365,271.274 521,272.5C 521.72,274.112 521.554,275.612 520.5,277C 518.421,277.808 516.421,277.641 514.5,276.5C 516.167,275.833 517.833,275.167 519.5,274.5C 514.735,272.98 513.402,269.98 515.5,265.5 Z"/></g>
<g><path style="opacity:1" fill="#e6f0f3" d="M 659.5,268.5 C 662.957,268.667 663.29,269.667 660.5,271.5C 659.614,270.675 659.281,269.675 659.5,268.5 Z"/></g>
<g><path style="opacity:1" fill="#475a5f" d="M 96.5,265.5 C 104.571,266.093 106.571,269.926 102.5,277C 95,278.833 92.1667,276 94,268.5C 95.045,267.627 95.8783,266.627 96.5,265.5 Z"/></g>
<g><path style="opacity:1" fill="#acb8bb" d="M 122.5,277.5 C 122.5,274.167 122.5,270.833 122.5,267.5C 121.833,266.167 121.167,266.167 120.5,267.5C 120.5,270.833 120.5,274.167 120.5,277.5C 119.523,274.713 119.19,271.713 119.5,268.5C 118.5,268.5 117.5,268.5 116.5,268.5C 116.5,267.5 116.5,266.5 116.5,265.5C 119.833,265.5 123.167,265.5 126.5,265.5C 126.5,266.5 126.5,267.5 126.5,268.5C 125.5,268.5 124.5,268.5 123.5,268.5C 123.81,271.713 123.477,274.713 122.5,277.5 Z"/></g>
<g><path style="opacity:1" fill="#46565a" d="M 206.5,265.5 C 214.036,264.92 216.536,268.253 214,275.5C 211.24,277.703 208.24,278.036 205,276.5C 202.689,272.374 203.189,268.707 206.5,265.5 Z"/></g>
<g><path style="opacity:1" fill="#eaf0f2" d="M 454.5,267.5 C 456.144,267.286 457.644,267.62 459,268.5C 459.758,270.769 459.591,272.936 458.5,275C 456.888,275.72 455.388,275.554 454,274.5C 453.444,272.115 453.61,269.782 454.5,267.5 Z"/></g>
<g><path style="opacity:1" fill="#495b60" d="M 738.5,265.5 C 740.75,265.181 742.75,265.681 744.5,267C 744,267.5 743.5,268 743,268.5C 741.817,267.269 740.651,267.269 739.5,268.5C 740.528,270.361 742.028,271.695 744,272.5C 744.72,274.112 744.554,275.612 743.5,277C 741.098,277.814 738.765,277.647 736.5,276.5C 742.259,275.759 742.759,274.092 738,271.5C 737.322,269.402 737.489,267.402 738.5,265.5 Z"/></g>
<g><path style="opacity:1" fill="#405055" d="M 800.5,266.5 C 799.432,267.434 798.099,267.768 796.5,267.5C 796.5,268.5 796.5,269.5 796.5,270.5C 801.833,271.167 801.833,271.833 796.5,272.5C 796.5,273.5 796.5,274.5 796.5,275.5C 797.978,275.238 799.311,275.571 800.5,276.5C 798.604,277.466 796.604,277.799 794.5,277.5C 794.5,273.833 794.5,270.167 794.5,266.5C 796.5,266.5 798.5,266.5 800.5,266.5 Z"/></g>
<g><path style="opacity:1" fill="#989c9e" d="M 895.5,266.5 C 893.612,268.988 892.945,271.988 893.5,275.5C 892.521,272.375 892.187,269.042 892.5,265.5C 893.791,265.263 894.791,265.596 895.5,266.5 Z"/></g>
<g><path style="opacity:1" fill="#3e5055" d="M 83.5,265.5 C 88.9933,264.178 91.4933,266.178 91,271.5C 89.5557,273.155 87.7224,273.822 85.5,273.5C 85.762,274.978 85.4287,276.311 84.5,277.5C 83.5091,273.555 83.1758,269.555 83.5,265.5 Z"/></g>
<g><path style="opacity:1" fill="#c9d2d6" d="M 85.5,267.5 C 87.3464,267.222 88.6798,267.889 89.5,269.5C 88.6798,271.111 87.3464,271.778 85.5,271.5C 85.5,270.167 85.5,268.833 85.5,267.5 Z"/></g>
<g><path style="opacity:1" fill="#f6fafa" d="M 97.5,267.5 C 98.8221,267.33 99.9887,267.663 101,268.5C 101.667,270.5 101.667,272.5 101,274.5C 99.6667,275.833 98.3333,275.833 97,274.5C 96.2967,272.071 96.4634,269.738 97.5,267.5 Z"/></g>
<g><path style="opacity:1" fill="#35464d" d="M 253.5,266.5 C 256.187,266.336 258.854,266.503 261.5,267C 260.552,267.483 259.552,267.649 258.5,267.5C 258.5,270.833 258.5,274.167 258.5,277.5C 256.598,274.663 255.931,271.329 256.5,267.5C 255.209,267.737 254.209,267.404 253.5,266.5 Z"/></g>
<g><path style="opacity:1" fill="#9ba9af" d="M 253.5,266.5 C 256.287,265.523 259.287,265.19 262.5,265.5C 262.5,266.5 262.5,267.5 262.5,268.5C 261.5,268.5 260.5,268.5 259.5,268.5C 259.81,271.713 259.477,274.713 258.5,277.5C 258.5,274.167 258.5,270.833 258.5,267.5C 259.552,267.649 260.552,267.483 261.5,267C 258.854,266.503 256.187,266.336 253.5,266.5 Z"/></g>
<g><path style="opacity:1" fill="#44555b" d="M 436.5,266.5 C 439.703,271.016 438.37,273.349 432.5,273.5C 432.843,275.483 432.176,276.817 430.5,277.5C 430.5,273.833 430.5,270.167 430.5,266.5C 432.5,266.5 434.5,266.5 436.5,266.5 Z"/></g>
<g><path style="opacity:1" fill="#e8f0f1" d="M 432.5,267.5 C 433.5,267.5 434.5,267.5 435.5,267.5C 435.778,269.346 435.111,270.68 433.5,271.5C 432.571,270.311 432.238,268.978 432.5,267.5 Z"/></g>
<g><path style="opacity:1" fill="#465861" d="M 471.5,266.5 C 472.695,266.866 473.361,267.699 473.5,269C 473.046,271.422 472.879,273.922 473,276.5C 470.619,277.435 468.119,277.768 465.5,277.5C 465.5,273.833 465.5,270.167 465.5,266.5C 467.5,266.5 469.5,266.5 471.5,266.5 Z"/></g>
<g><path style="opacity:1" fill="#e6eff5" d="M 467.5,268.5 C 468.675,268.281 469.675,268.614 470.5,269.5C 468.948,270.798 467.948,270.465 467.5,268.5 Z"/></g>
<g><path style="opacity:1" fill="#3f5155" d="M 569.5,272.5 C 569.783,273.289 570.283,273.956 571,274.5C 571.333,271.833 571.667,269.167 572,266.5C 572.499,270.152 572.665,273.818 572.5,277.5C 571.325,277.719 570.325,277.386 569.5,276.5C 568,274.167 566.5,271.833 565,269.5C 564.818,272.226 564.318,274.893 563.5,277.5C 562.509,273.555 562.176,269.555 562.5,265.5C 565.908,266.559 568.241,268.892 569.5,272.5 Z"/></g>
<g><path style="opacity:1" fill="#47575e" d="M 638.5,266.5 C 640.527,266.338 642.527,266.505 644.5,267C 643.207,267.49 641.873,267.657 640.5,267.5C 640.5,268.5 640.5,269.5 640.5,270.5C 645.833,271.167 645.833,271.833 640.5,272.5C 640.5,273.5 640.5,274.5 640.5,275.5C 642.483,275.157 643.817,275.824 644.5,277.5C 642.5,277.5 640.5,277.5 638.5,277.5C 638.5,273.833 638.5,270.167 638.5,266.5 Z"/></g>
<g><path style="opacity:1" fill="#4d5d62" d="M 746.5,265.5 C 748.924,265.192 751.257,265.526 753.5,266.5C 751.955,267.452 750.288,267.785 748.5,267.5C 748.5,268.5 748.5,269.5 748.5,270.5C 750.288,270.215 751.955,270.548 753.5,271.5C 752.311,272.429 750.978,272.762 749.5,272.5C 749.5,273.5 749.5,274.5 749.5,275.5C 750.978,275.238 752.311,275.571 753.5,276.5C 751.257,277.474 748.924,277.808 746.5,277.5C 746.5,273.5 746.5,269.5 746.5,265.5 Z"/></g>
<g><path style="opacity:1" fill="#405259" d="M 762.5,266.5 C 763.693,268.51 763.693,270.676 762.5,273C 762.95,274.285 763.617,275.452 764.5,276.5C 763.998,277.521 763.332,277.688 762.5,277C 761.845,275.513 760.845,274.347 759.5,273.5C 758.943,275.332 757.943,276.665 756.5,277.5C 756.5,273.833 756.5,270.167 756.5,266.5C 758.5,266.5 760.5,266.5 762.5,266.5 Z"/></g>
<g><path style="opacity:1" fill="#d9e2e3" d="M 758.5,267.5 C 761.861,268.203 762.194,269.537 759.5,271.5C 758.571,270.311 758.238,268.978 758.5,267.5 Z"/></g>
<g><path style="opacity:1" fill="#7c7c7c" d="M 6.5,280.5 C 6.5,280.167 6.5,279.833 6.5,279.5C 9.98722,279.026 10.9872,277.192 9.5,274C 11.0157,270.51 12.1824,270.677 13,274.5C 13.5556,272.405 14.0556,272.238 14.5,274C 13.6138,276.112 13.6138,278.278 14.5,280.5C 11.8333,280.5 9.16667,280.5 6.5,280.5 Z"/></g>
<g><path style="opacity:1" fill="#3e515a" d="M 79.5,266.5 C 80.6225,268.288 80.7891,270.288 80,272.5C 78.6439,273.38 77.1439,273.714 75.5,273.5C 75.8432,275.483 75.1765,276.817 73.5,277.5C 73.5,273.833 73.5,270.167 73.5,266.5C 75.5,266.5 77.5,266.5 79.5,266.5 Z"/></g>
<g><path style="opacity:1" fill="#e0eded" d="M 75.5,267.5 C 78.8606,268.203 79.1939,269.537 76.5,271.5C 75.5713,270.311 75.238,268.978 75.5,267.5 Z"/></g>
<g><path style="opacity:1" fill="#44555a" d="M 113.5,266.5 C 116.038,268.322 116.038,270.322 113.5,272.5C 114.128,274.258 115.128,275.758 116.5,277C 115.5,277.667 114.5,277.667 113.5,277C 112.845,275.513 111.845,274.347 110.5,273.5C 109.943,275.332 108.943,276.665 107.5,277.5C 107.5,273.833 107.5,270.167 107.5,266.5C 109.5,266.5 111.5,266.5 113.5,266.5 Z"/></g>
<g><path style="opacity:1" fill="#c5cfd2" d="M 109.5,267.5 C 110.5,267.5 111.5,267.5 112.5,267.5C 112.5,268.833 112.5,270.167 112.5,271.5C 111.5,271.5 110.5,271.5 109.5,271.5C 109.5,270.167 109.5,268.833 109.5,267.5 Z"/></g>
<g><path style="opacity:1" fill="#9caab1" d="M 247.5,268.5 C 249.213,269.635 249.88,271.302 249.5,273.5C 248.5,273.5 247.5,273.5 246.5,273.5C 246.629,271.784 246.962,270.117 247.5,268.5 Z"/></g>
<g><path style="opacity:1" fill="#515f64" d="M 282.5,265.5 C 283.978,265.238 285.311,265.571 286.5,266.5C 289.843,274.811 291.176,274.478 290.5,265.5C 291.5,265.5 292.5,265.5 293.5,265.5C 293.5,269.5 293.5,273.5 293.5,277.5C 292.022,277.762 290.689,277.429 289.5,276.5C 288,274.167 286.5,271.833 285,269.5C 284.818,272.226 284.318,274.893 283.5,277.5C 282.509,273.555 282.176,269.555 282.5,265.5 Z"/></g>
<g><path style="opacity:1" fill="#435259" d="M 440.5,265.5 C 445.993,264.178 448.493,266.178 448,271.5C 447.5,272 447,272.5 446.5,273C 449.812,276.065 449.812,277.231 446.5,276.5C 444.037,271.041 442.37,271.374 441.5,277.5C 440.509,273.555 440.176,269.555 440.5,265.5 Z"/></g>
<g><path style="opacity:1" fill="#acbabf" d="M 442.5,267.5 C 443.5,267.5 444.5,267.5 445.5,267.5C 445.5,268.833 445.5,270.167 445.5,271.5C 444.5,271.5 443.5,271.5 442.5,271.5C 442.5,270.167 442.5,268.833 442.5,267.5 Z"/></g>
<g><path style="opacity:1" fill="#485a60" d="M 526.5,265.5 C 534.571,266.093 536.571,269.926 532.5,277C 525,278.833 522.167,276 524,268.5C 525.045,267.627 525.878,266.627 526.5,265.5 Z"/></g>
<g><path style="opacity:1" fill="#f8f9f8" d="M 527.5,267.5 C 528.822,267.33 529.989,267.663 531,268.5C 531.667,270.5 531.667,272.5 531,274.5C 529.667,275.833 528.333,275.833 527,274.5C 526.297,272.071 526.463,269.738 527.5,267.5 Z"/></g>
<g><path style="opacity:1" fill="#425658" d="M 647.5,266.5 C 649.388,268.988 650.055,271.988 649.5,275.5C 651.288,275.215 652.955,275.548 654.5,276.5C 652.257,277.474 649.924,277.808 647.5,277.5C 647.5,273.833 647.5,270.167 647.5,266.5 Z"/></g>
<g><path style="opacity:1" fill="#5a6b70" d="M 777.5,265.5 C 778.5,265.5 779.5,265.5 780.5,265.5C 780.5,269.5 780.5,273.5 780.5,277.5C 779.5,277.5 778.5,277.5 777.5,277.5C 777.5,273.5 777.5,269.5 777.5,265.5 Z"/></g>
<g><path style="opacity:1" fill="#e7eeef" d="M 207.5,267.5 C 212.262,268.092 213.596,270.592 211.5,275C 209.888,275.72 208.388,275.554 207,274.5C 206.297,272.071 206.463,269.738 207.5,267.5 Z"/></g>
<g><path style="opacity:1" fill="#ebf3f3" d="M 273.5,267.5 C 274.822,267.33 275.989,267.663 277,268.5C 277.758,270.769 277.591,272.936 276.5,275C 271.917,275.934 270.417,274.1 272,269.5C 272.717,268.956 273.217,268.289 273.5,267.5 Z"/></g>
<g><path style="opacity:1" fill="#4c5c62" d="M 339.5,265.5 C 340.675,265.281 341.675,265.614 342.5,266.5C 344.029,269.754 345.362,273.087 346.5,276.5C 345.675,277.386 344.675,277.719 343.5,277.5C 343.5,276.5 343.5,275.5 343.5,274.5C 341.833,274.5 340.167,274.5 338.5,274.5C 338.5,275.5 338.5,276.5 338.5,277.5C 337.5,277.5 336.5,277.5 335.5,277.5C 336.27,273.297 337.604,269.297 339.5,265.5 Z"/></g>
<g><path style="opacity:1" fill="#e7f0f1" d="M 340.5,268.5 C 341.249,269.531 341.915,270.698 342.5,272C 341.5,272.667 340.5,272.667 339.5,272C 340.337,270.989 340.67,269.822 340.5,268.5 Z"/></g>
<g><path style="opacity:1" fill="#e0e8ec" d="M 350.5,267.5 C 355.262,268.092 356.596,270.592 354.5,275C 353.207,275.49 351.873,275.657 350.5,275.5C 350.5,272.833 350.5,270.167 350.5,267.5 Z"/></g>
<g><path style="opacity:1" fill="#44575f" d="M 367.5,265.5 C 368.376,265.369 369.043,265.702 369.5,266.5C 367.837,269.656 366.67,272.989 366,276.5C 364.989,277.337 363.822,277.67 362.5,277.5C 361.909,274.06 360.909,270.727 359.5,267.5C 360.274,266.289 361.107,266.289 362,267.5C 362.667,269.5 363.333,271.5 364,273.5C 365.076,270.763 366.243,268.096 367.5,265.5 Z"/></g>
<g><path style="opacity:1" fill="#3f4f56" d="M 379.5,265.5 C 381.167,265.5 382.833,265.5 384.5,265.5C 384.911,268.276 384.078,268.943 382,267.5C 378.795,268.798 377.795,271.132 379,274.5C 380.825,275.103 382.659,275.77 384.5,276.5C 377.525,278.356 375.025,275.689 377,268.5C 377.698,267.309 378.531,266.309 379.5,265.5 Z"/></g>
<g><path style="opacity:1" fill="#3f4f55" d="M 390.5,270.5 C 391.675,270.281 392.675,270.614 393.5,271.5C 392.311,272.429 390.978,272.762 389.5,272.5C 389.5,273.5 389.5,274.5 389.5,275.5C 391.288,275.215 392.955,275.548 394.5,276.5C 392.257,277.474 389.924,277.808 387.5,277.5C 387.5,273.833 387.5,270.167 387.5,266.5C 389.527,266.338 391.527,266.505 393.5,267C 392.207,267.49 390.873,267.657 389.5,267.5C 389.263,268.791 389.596,269.791 390.5,270.5 Z"/></g>
<g><path style="opacity:1" fill="#ebf7f8" d="M 467.5,272.5 C 468.5,272.5 469.5,272.5 470.5,272.5C 470.5,273.5 470.5,274.5 470.5,275.5C 469.5,275.5 468.5,275.5 467.5,275.5C 467.5,274.5 467.5,273.5 467.5,272.5 Z"/></g>
<g><path style="opacity:1" fill="#9ba5ab" d="M 638.5,266.5 C 638.5,270.167 638.5,273.833 638.5,277.5C 640.5,277.5 642.5,277.5 644.5,277.5C 642.393,278.468 640.059,278.802 637.5,278.5C 637.183,274.298 637.517,270.298 638.5,266.5 Z"/></g>
<g><path style="opacity:1" fill="#4b5c62" d="M 765.5,265.5 C 766.5,265.5 767.5,265.5 768.5,265.5C 769.022,268.568 769.855,271.568 771,274.5C 771.532,271.736 772.366,269.07 773.5,266.5C 774.5,265.167 775.5,265.167 776.5,266.5C 774.368,269.896 773.035,273.563 772.5,277.5C 771.178,277.67 770.011,277.337 769,276.5C 768.126,272.712 766.959,269.046 765.5,265.5 Z"/></g>
<g><path style="opacity:1" fill="#44555a" d="M 60.5,265.5 C 62.2371,268.008 63.0704,271.008 63,274.5C 64.3333,275.833 65.6667,275.833 67,274.5C 67.1786,271.447 67.6786,268.447 68.5,265.5C 69.7948,269.38 69.7948,273.214 68.5,277C 65.9009,277.769 63.4009,277.602 61,276.5C 60.5014,272.848 60.3347,269.182 60.5,265.5 Z"/></g>
<g><path style="opacity:1" fill="#3d4e51" d="M 122.5,277.5 C 121.833,277.5 121.167,277.5 120.5,277.5C 120.5,274.167 120.5,270.833 120.5,267.5C 121.167,266.167 121.833,266.167 122.5,267.5C 122.5,270.833 122.5,274.167 122.5,277.5 Z"/></g>
<g><path style="opacity:1" fill="#46575c" d="M 228.5,265.5 C 229.822,265.33 230.989,265.663 232,266.5C 233.297,274.943 234.963,275.276 237,267.5C 238.011,266.663 239.178,266.33 240.5,266.5C 240.823,270.226 240.489,273.893 239.5,277.5C 238.686,275.234 238.186,272.9 238,270.5C 235.648,279.823 233.315,279.823 231,270.5C 230.814,272.9 230.314,275.234 229.5,277.5C 228.509,273.555 228.176,269.555 228.5,265.5 Z"/></g>
<g><path style="opacity:1" fill="#354852" d="M 371.5,266.5 C 372.787,267.871 373.453,269.705 373.5,272C 373.167,273.833 372.833,275.667 372.5,277.5C 371.511,273.893 371.177,270.226 371.5,266.5 Z"/></g>
<g><path style="opacity:1" fill="#3d4d54" d="M 625.5,266.5 C 627.176,267.183 627.843,268.517 627.5,270.5C 629.167,270.5 630.833,270.5 632.5,270.5C 632.238,269.022 632.571,267.689 633.5,266.5C 634.833,270.167 634.833,273.833 633.5,277.5C 632.548,275.955 632.215,274.288 632.5,272.5C 630.833,272.5 629.167,272.5 627.5,272.5C 627.785,274.288 627.452,275.955 626.5,277.5C 625.511,273.893 625.177,270.226 625.5,266.5 Z"/></g>
<g><path style="opacity:1" fill="#4f6065" d="M 785.5,265.5 C 787.977,265.051 789.977,265.717 791.5,267.5C 789.604,268.466 787.604,268.799 785.5,268.5C 784.14,273.75 786.14,276.417 791.5,276.5C 786.363,278.869 783.363,277.369 782.5,272C 782.84,269.489 783.84,267.322 785.5,265.5 Z"/></g>
<g><path style="opacity:1" fill="#ecf3f3" d="M 873.5,267.5 C 875.144,267.286 876.644,267.62 878,268.5C 878.758,270.769 878.591,272.936 877.5,275C 875.888,275.72 874.388,275.554 873,274.5C 872.444,272.115 872.61,269.782 873.5,267.5 Z"/></g>
<g><path style="opacity:1" fill="#374b56" d="M 915.5,265.5 C 916.794,267.048 917.461,269.048 917.5,271.5C 917.167,273.5 916.833,275.5 916.5,277.5C 915.509,273.555 915.176,269.555 915.5,265.5 Z"/></g>
<g><path style="opacity:1" fill="#49585b" d="M 52.5,265.5 C 58.1458,266.088 58.4792,266.754 53.5,267.5C 54.8608,270.025 56.5274,272.358 58.5,274.5C 58.1822,275.647 57.5156,276.481 56.5,277C 54.4213,277.808 52.4213,277.641 50.5,276.5C 52.1667,275.833 53.8333,275.167 55.5,274.5C 53.3736,273.099 51.7069,271.266 50.5,269C 50.9783,267.697 51.645,266.531 52.5,265.5 Z"/></g>
<g><path style="opacity:1" fill="#5d6a72" d="M 175.5,265.5 C 176.5,265.5 177.5,265.5 178.5,265.5C 178.5,269.5 178.5,273.5 178.5,277.5C 177.5,277.5 176.5,277.5 175.5,277.5C 175.5,273.5 175.5,269.5 175.5,265.5 Z"/></g>
<g><path style="opacity:1" fill="#59686f" d="M 263.5,265.5 C 264.5,265.5 265.5,265.5 266.5,265.5C 266.5,269.5 266.5,273.5 266.5,277.5C 265.5,277.5 264.5,277.5 263.5,277.5C 263.5,273.5 263.5,269.5 263.5,265.5 Z"/></g>
<g><path style="opacity:1" fill="#4a5a5e" d="M 505.5,277.5 C 505.664,274.813 505.497,272.146 505,269.5C 503.961,270.244 503.461,271.244 503.5,272.5C 502.962,274.117 502.629,275.784 502.5,277.5C 501.325,277.719 500.325,277.386 499.5,276.5C 498.668,273.839 497.834,271.172 497,268.5C 496.821,271.553 496.321,274.553 495.5,277.5C 494.509,273.555 494.176,269.555 494.5,265.5C 495.833,265.5 497.167,265.5 498.5,265.5C 499.022,268.568 499.855,271.568 501,274.5C 501.849,271.479 502.683,268.479 503.5,265.5C 504.833,265.5 506.167,265.5 507.5,265.5C 508.089,269.971 507.423,273.971 505.5,277.5 Z"/></g>
<g><path style="opacity:1" fill="#9caeb3" d="M 505.5,277.5 C 504.833,275.833 504.167,274.167 503.5,272.5C 503.461,271.244 503.961,270.244 505,269.5C 505.497,272.146 505.664,274.813 505.5,277.5 Z"/></g>
<g><path style="opacity:1" fill="#3f5157" d="M 893.5,275.5 C 892.945,271.988 893.612,268.988 895.5,266.5C 895.5,269.5 895.5,272.5 895.5,275.5C 897.144,275.714 898.644,275.38 900,274.5C 900.179,271.447 900.679,268.447 901.5,265.5C 902.764,269.18 902.764,272.847 901.5,276.5C 900.333,276.833 899.167,277.167 898,277.5C 895.992,277.693 894.492,277.026 893.5,275.5 Z"/></g>
<g><path style="opacity:1" fill="#47595e" d="M 923.5,265.5 C 931.576,266.009 933.576,269.843 929.5,277C 922,278.833 919.167,276 921,268.5C 922.045,267.627 922.878,266.627 923.5,265.5 Z"/></g>
<g><path style="opacity:1" fill="#f4faf9" d="M 924.5,267.5 C 925.822,267.33 926.989,267.663 928,268.5C 928.667,270.5 928.667,272.5 928,274.5C 926.667,275.833 925.333,275.833 924,274.5C 923.297,272.071 923.463,269.738 924.5,267.5 Z"/></g>
<g><path style="opacity:1" fill="#687579" d="M 197.5,267.5 C 197.5,268.5 197.5,269.5 197.5,270.5C 198.833,270.5 200.167,270.5 201.5,270.5C 201.5,271.5 201.5,272.5 201.5,273.5C 200.167,273.5 198.833,273.5 197.5,273.5C 197.768,275.099 197.434,276.432 196.5,277.5C 196.187,273.958 196.521,270.625 197.5,267.5 Z"/></g>
<g><path style="opacity:1" fill="#485a60" d="M 475.5,265.5 C 476.5,265.5 477.5,265.5 478.5,265.5C 478.5,268.833 478.5,272.167 478.5,275.5C 480.288,275.215 481.955,275.548 483.5,276.5C 480.914,277.48 478.247,277.813 475.5,277.5C 475.5,273.5 475.5,269.5 475.5,265.5 Z"/></g>
<g><path style="opacity:1" fill="#425358" d="M 485.5,265.5 C 487.924,265.192 490.257,265.526 492.5,266.5C 490.955,267.452 489.288,267.785 487.5,267.5C 487.5,268.5 487.5,269.5 487.5,270.5C 492.833,271.167 492.833,271.833 487.5,272.5C 487.5,273.5 487.5,274.5 487.5,275.5C 489.288,275.215 490.955,275.548 492.5,276.5C 490.257,277.474 487.924,277.808 485.5,277.5C 485.5,273.5 485.5,269.5 485.5,265.5 Z"/></g>
<g><path style="opacity:1" fill="#48555c" d="M 552.5,265.5 C 553.675,265.281 554.675,265.614 555.5,266.5C 553.971,269.754 552.638,273.087 551.5,276.5C 550.675,277.386 549.675,277.719 548.5,277.5C 547.256,274.31 546.256,270.977 545.5,267.5C 546.274,266.289 547.107,266.289 548,267.5C 548.822,269.788 549.489,272.122 550,274.5C 551.145,271.568 551.978,268.568 552.5,265.5 Z"/></g>
<g><path style="opacity:1" fill="#4d5b62" d="M 883.5,265.5 C 884.5,265.5 885.5,265.5 886.5,265.5C 886.5,268.833 886.5,272.167 886.5,275.5C 888.288,275.215 889.955,275.548 891.5,276.5C 888.914,277.48 886.247,277.813 883.5,277.5C 883.5,273.5 883.5,269.5 883.5,265.5 Z"/></g>
<g><path style="opacity:1" fill="#808080" d="M 13.5,297.5 C 6.41647,296.015 6.08313,294.182 12.5,292C 10.5721,289.909 8.5721,288.076 6.5,286.5C 7.87344,286.657 9.20677,286.49 10.5,286C 9,282.167 10.1667,281 14,282.5C 14.1692,285.839 14.3358,289.172 14.5,292.5C 11.8333,293.833 11.8333,295.167 14.5,296.5C 14.3764,297.107 14.0431,297.44 13.5,297.5 Z"/></g>
</svg>
